<?xml version="1.0" encoding="utf-8"?>
<!-- Generator: Adobe Illustrator 25.2.1, SVG Export Plug-In . SVG Version: 6.00 Build 0)  -->
<svg version="1.1" id="Layer_1" xmlns="http://www.w3.org/2000/svg" xmlns:xlink="http://www.w3.org/1999/xlink" x="0px" y="0px"
	 viewBox="0 0 64 64" style="enable-background:new 0 0 64 64;" xml:space="preserve">
<style type="text/css">
	.st0{fill:#E13E2F;}
</style>
<g>
	<path class="st0" d="M18.7,21.1V22c0,0.7,0.5,1.2,1.2,1.2S21,22.7,21,22v-0.9c0-0.7-0.5-1.2-1.2-1.2S18.7,20.4,18.7,21.1z"/>
	<path class="st0" d="M23.6,30.2c-0.7,0-1.2,0.5-1.2,1.2v0.9c0,0.7,0.5,1.2,1.2,1.2s1.2-0.5,1.2-1.2v-0.9
		C24.8,30.7,24.2,30.2,23.6,30.2z"/>
	<path class="st0" d="M24.8,21.1c0-0.7-0.5-1.2-1.2-1.2s-1.2,0.5-1.2,1.2v6.5c0,0.7,0.5,1.2,1.2,1.2s1.2-0.5,1.2-1.2V21.1z"/>
	<path class="st0" d="M59.4,35.7c-0.6-0.6-1.3-0.9-2.1-0.9c0,0,0,0,0,0H10V13.6c0-2.8,2.2-5.1,5-5.3c2.9-0.2,5.5,1.9,5.8,4.8
		c-2.1,0.6-3.6,2.5-3.6,4.7c0,0.7,0.5,1.2,1.2,1.2h7.5c0.7,0,1.2-0.5,1.2-1.2c0-2.3-1.6-4.3-3.9-4.8c-0.4-3.9-3.7-7-7.7-7.1
		c-2.1-0.1-4,0.8-5.5,2.2c-1.5,1.5-2.3,3.4-2.3,5.5v21.2H6.9c0,0-0.1,0-0.1,0c-1.5,0-2.8,1.1-3.1,2.5c0,0.2,0,0.4,0,0.6
		c0,1.7,1.4,3,3.1,3h0.1c0.6,0,1,0.4,1.2,0.9c1.7,5.4,6.9,10,13.9,12.3l0,0.6c0.1,1.3,1,2.4,2.3,2.8c1.6,0.4,3.2-0.5,3.7-2
		c2.7,0.4,5.4,0.4,8.1,0c0.1,0.7,0.5,1.4,1.1,1.8c0.6,0.5,1.2,0.7,2,0.7c0.1,0,0.2,0,0.3,0c0.8-0.1,1.6-0.5,2.1-1.1s0.8-1.4,0.7-2.2
		v-0.5c7-2.3,12.2-6.9,13.9-12.3c0.2-0.5,0.6-0.9,1.2-0.9c0,0,0.1,0,0.1,0c1.5,0,2.8-1.1,3.1-2.5l0,0c0-0.2,0-0.4,0-0.6
		C60.3,37,60,36.3,59.4,35.7z M46.7,41.6c0,0.9-0.7,1.6-1.6,1.6h-7.5c-0.9,0-1.6-0.7-1.6-1.6v-4.4h10.7V41.6z M41.5,51.1
		c-0.1-0.2-0.2-0.3-0.4-0.4l-0.1-0.1c-0.1-0.1-0.2-0.2-0.3-0.3l-0.2-0.1c-0.1-0.1-0.2-0.1-0.3-0.2l-0.6-0.2l-0.1,0
		c-0.2,0-0.4-0.1-0.6-0.1c-1.7,0-3.1,1.4-3.1,3.1v0.3c-2.6,0.3-5.3,0.3-7.9,0v-0.3c0-1.7-1.4-3.1-3.1-3.1c0,0,0,0,0,0
		c-0.2,0-0.4,0.1-0.6,0.1h-0.1l-0.4,0.1l-0.2,0.1c-0.1,0.1-0.2,0.1-0.3,0.2l-0.2,0.1c-0.1,0.1-0.2,0.2-0.3,0.2l-0.1,0.1
		c-0.1,0.1-0.2,0.3-0.3,0.4l0,0.1v0c-0.1,0.1-0.1,0.2-0.2,0.4l0,0.1c-6-2.1-10.4-6-11.9-10.6c-0.4-1.5-1.8-2.6-3.4-2.6H6.7
		c-0.2,0-0.4-0.1-0.5-0.2C6.1,38.2,6,38,6.1,37.8c0.1-0.4,0.4-0.6,0.8-0.6h26.8v4.4c0,2.2,1.8,4,4,4h7.5c2.2,0,4-1.8,4-4v-4.4h8.2
		c0,0,0,0,0,0c0.2,0,0.4,0.1,0.5,0.2s0.2,0.4,0.2,0.6c-0.1,0.3-0.4,0.6-0.8,0.6c0,0-0.1,0-0.1,0c-1.6,0-3,1-3.5,2.6
		c-1.4,4.6-5.8,8.5-11.8,10.6l-0.1-0.1c-0.1-0.1-0.1-0.2-0.2-0.3L41.5,51.1L41.5,51.1z M24.3,52.9c0-0.4,0.3-0.7,0.7-0.7
		s0.7,0.3,0.7,0.7v1.9c0,0.4-0.3,0.7-0.7,0.7s-0.7-0.3-0.7-0.7V52.9z M38.3,52.9c0-0.4,0.3-0.7,0.7-0.7s0.7,0.3,0.7,0.7v1.9
		c0,0.4-0.3,0.7-0.7,0.7s-0.7-0.3-0.7-0.7V52.9z M19.9,16.6c0.4-0.8,1.3-1.4,2.3-1.4l0,0c0,0,0,0,0,0c1,0,1.8,0.5,2.3,1.4H19.9z"/>
</g>
</svg>
