<?xml version="1.0" encoding="utf-8"?>
<!-- Generator: Adobe Illustrator 25.2.1, SVG Export Plug-In . SVG Version: 6.00 Build 0)  -->
<svg version="1.1" id="Layer_1" xmlns="http://www.w3.org/2000/svg" xmlns:xlink="http://www.w3.org/1999/xlink" x="0px" y="0px"
	 viewBox="0 0 64 64" style="enable-background:new 0 0 64 64;" xml:space="preserve">
<style type="text/css">
	.st0{fill:#E03F2F;}
</style>
<g id="Layer_1_1_">
	<path class="st0" d="M8,46.1h29v9.8l6-3.6l6,3.6v-9.8h7v-38H8V46.1z M47.3,39.3c-0.1,0.1-0.2,0.2-0.3,0.3c-0.1,0-0.1,0.1-0.2,0.1
		c-0.1,0.1-0.1,0.1-0.2,0.1c-0.8,0.6-1.9,1.1-3,1.2c0,0,0,0-0.1,0c-0.2,0-0.4,0-0.6,0s-0.4,0-0.6,0c0,0,0,0-0.1,0
		c-1.1-0.1-2.1-0.6-3-1.2c-0.1,0-0.1-0.1-0.2-0.1c-0.1,0-0.1-0.1-0.2-0.1c-0.1-0.1-0.2-0.2-0.3-0.3c-1.1-1.1-1.7-2.6-1.7-4.2
		c0-3.3,2.7-6,6-6s6,2.7,6,6C49,36.8,48.3,38.2,47.3,39.3z M47,52.4L43,50l-4,2.4v-6.2V42c0,0,0.1,0,0.1,0.1
		c0.3,0.1,0.5,0.3,0.8,0.4c0,0,0,0,0,0c0.9,0.4,2,0.6,3,0.6s2.1-0.2,3-0.6c0,0,0,0,0,0c0.3-0.1,0.6-0.3,0.8-0.4c0,0,0.1,0,0.1-0.1
		v4.1L47,52.4L47,52.4z M10,10.1h44v34h-5v-3.7c1.2-1.4,2-3.3,2-5.3c0-4.4-3.6-8-8-8s-8,3.6-8,8c0,2,0.8,3.9,2,5.3v3.7H10V10.1z"/>
	<rect x="19" y="14.1" class="st0" width="26" height="2"/>
	<rect x="24" y="20.1" class="st0" width="16" height="2"/>
	<rect x="14" y="38.1" class="st0" width="11" height="2"/>
</g>
</svg>
