<?xml version="1.0" encoding="utf-8"?>
<!-- Generator: Adobe Illustrator 25.2.1, SVG Export Plug-In . SVG Version: 6.00 Build 0)  -->
<svg version="1.1" id="Слой_1" xmlns="http://www.w3.org/2000/svg" xmlns:xlink="http://www.w3.org/1999/xlink" x="0px" y="0px"
	 viewBox="0 0 100 100" style="enable-background:new 0 0 100 100;" xml:space="preserve">
<style type="text/css">
	.st0{fill:#DF402F;}
</style>
<path class="st0" d="M93.3,70.7c0-0.4-0.1-0.8-0.4-1.1c-0.6-4.2-2.3-8.3-4.6-11.8C82.4,49.2,72.7,44,62.2,44c0,0-0.1,0-0.1,0
	C44.1,44,30.5,57,25.6,62.6c-1.8,2-2.7,4.5-2.7,7.1v9h-5.3c-3.7,0-6.8-3.1-6.8-6.8V30.6c0-3.7,3.1-6.8,6.8-6.8h59.9v7.1
	c0,5.4,4.4,9.8,9.8,9.8h2.7c1.1,0,2-0.9,2-2V5c0-1.1-0.9-2-2-2h-2.7c-5.4,0-9.8,4.4-9.8,9.8v7.1H17.5c-6,0-10.8,4.9-10.9,10.9v41.3
	c0,6,4.9,10.8,10.9,10.9h5.3v4.1c0,4.2,3.4,7.6,7.6,7.6h19.7c2.6,1.7,5.5,2.5,8.4,2.5c2.9,0,5.9-0.8,8.4-2.5h9.8
	c6.4,0,12.2-3.8,14.4-9.5c1.7-4.3,2.4-9,2-13.6C93.3,71.2,93.3,71,93.3,70.7z M58.6,70.4c6.2,0,11.3,5.1,11.3,11.3
	c0,6.2-5.1,11.3-11.3,11.3c-6.2,0-11.3-5.1-11.3-11.3C47.3,75.4,52.3,70.4,58.6,70.4z M73.9,81.7c0-8.5-6.9-15.4-15.4-15.4
	c0,0,0,0,0,0c-4.1,0-8,1.6-10.9,4.5c-2.9,2.9-4.5,6.8-4.5,10.9c0,3.2,1,6.2,2.8,8.8H30.4c-2,0-3.6-1.6-3.6-3.6V74.8h9.4
	c0.8,0,1.6-0.5,1.9-1.3c0.1-0.1,5.7-14.2,22.5-14.2C77.1,59.3,79,70.5,79.1,71c0.1,1,1,1.7,2,1.7h8.2c0.2,3.7-0.4,7.4-1.8,10.8l0,0
	c-1.6,4.2-5.9,6.9-10.7,6.9h-5.7C72.9,87.9,73.9,84.8,73.9,81.7z M82.6,68.7c-4-12.5-17.8-13.5-22-13.5C44.3,55.2,37,66.7,35,70.7
	h-8.1v-1c0-1.6,0.6-3.2,1.7-4.4l0,0c4.6-5.2,17.1-17.2,33.5-17.2c9.2,0,17.7,4.5,22.9,12c1.8,2.6,3,5.5,3.7,8.6H82.6z M81.4,12.7
	C81.4,9.6,84,7,87.1,7c0,0,0,0,0,0h0.7v29.6h-0.7c-3.2,0-5.7-2.6-5.7-5.7L81.4,12.7z"/>
</svg>
