<?xml version="1.0" encoding="utf-8"?>
<!-- Generator: Adobe Illustrator 25.2.1, SVG Export Plug-In . SVG Version: 6.00 Build 0)  -->
<svg version="1.1" id="Слой_1" xmlns="http://www.w3.org/2000/svg" xmlns:xlink="http://www.w3.org/1999/xlink" x="0px" y="0px"
	 viewBox="0 0 100 100" style="enable-background:new 0 0 100 100;" xml:space="preserve">
<style type="text/css">
	.st0{fill:#E03F2F;}
</style>
<g>
	<path class="st0" d="M94.8,52.8h-1.3v-4.3c0-1-0.9-1.8-1.8-1.8h-1.3V36.1c0-1-0.9-1.8-1.8-1.8h-9.2c-0.9,0-1.6,0.6-1.8,1.5h-4.3
		c-1,0-1.8,0.9-1.8,1.8v6.2c0,1,0.9,1.8,1.8,1.8h4.3v1h-1.3c-1,0-1.8,0.9-1.8,1.8v4.3H73c-1,0-1.8,0.9-1.8,1.8v40.1
		c0,1,0.9,1.8,1.8,1.8h21.5c1,0,1.8-0.9,1.8-1.8V54.6C96.5,53.5,95.7,52.8,94.8,52.8z M77.6,39.4v2.5H75v-2.5H77.6z M86.8,37.9v8.7
		h-5.6v-8.7H86.8z M78.1,52.8v-2.5h11.8v2.5H78.1z M87.3,76.2V62.3c0-1-0.9-1.8-1.8-1.8H75v-4.1h18v36.5H75V78h10.5
		C86.5,78,87.3,77.1,87.3,76.2z M75,74.3V64h8.7v10.3H75z"/>
	<rect x="62.1" y="38.9" class="st0" width="3.6" height="3.6"/>
	<rect x="55.9" y="38.9" class="st0" width="3.6" height="3.6"/>
	<rect x="65.3" y="31.2" transform="matrix(0.7071 -0.7071 0.7071 0.7071 -3.6995 57.074)" class="st0" width="3.6" height="3.6"/>
	<rect x="60.9" y="26.9" transform="matrix(0.7072 -0.707 0.707 0.7072 -1.9642 52.7042)" class="st0" width="3.6" height="3.6"/>
	<rect x="65.3" y="46.5" transform="matrix(0.7072 -0.707 0.707 0.7072 -14.4949 61.5405)" class="st0" width="3.6" height="3.6"/>
	<rect x="60.9" y="51" transform="matrix(0.7071 -0.7071 0.7071 0.7071 -18.9301 59.7797)" class="st0" width="3.6" height="3.6"/>
	<path class="st0" d="M20.5,49.8V61h3.6V49.8c1.2-0.4,2.1-1.3,2.6-2.4c0.5-1.2,0.6-2.5,0.2-3.7c-0.6-1.9-2.5-3.2-4.7-3.2l0,0
		c-1.3,0-2.5,0.5-3.5,1.4c-1,1-1.4,2.2-1.4,3.5C17.5,47.3,18.6,49.1,20.5,49.8z M22.3,46.6c-0.6,0-1.3-0.5-1.3-1.3
		c0-0.6,0.5-1.3,1.3-1.3s1.3,0.5,1.3,1.3C23.6,46,23,46.6,22.3,46.6z"/>
	<path class="st0" d="M57.7,14.2H41.1V8.4c0-2.7-2.2-4.9-4.9-4.9H8.5c-2.7,0-4.9,2.2-4.9,4.9v58.6c0,2.7,2.2,4.9,4.9,4.9h27.7
		c2.7,0,4.9-2.2,4.9-4.9V27.1h16.7c1,0,1.8-0.9,1.8-1.8v-9.2C59.6,15.1,58.7,14.2,57.7,14.2z M16.4,25.1c-1.2-1.6-1.7-3.6-1.4-5.5
		c0.3-1.9,1.3-3.7,2.9-4.9c1.3-1,2.9-1.5,4.4-1.5c1.3,0,2.6,0.3,3.7,1h-3.7c-3.6,0-6.4,2.9-6.4,6.4c0,3.6,2.9,6.4,6.4,6.4H26
		C22.8,28.9,18.6,28.2,16.4,25.1z M37.5,14.2h-6.2C27.9,9.3,20.9,8.1,16,11.6c-5,3.5-6.3,10.4-2.7,15.4c3.5,5,10.4,6.3,15.4,2.7
		c1.1-0.8,1.9-1.6,2.7-2.6h6.2v39.8c0,0.6-0.5,1.3-1.3,1.3H8.5c-0.6,0-1.3-0.5-1.3-1.3V8.4c0-0.6,0.5-1.3,1.3-1.3h27.7
		c0.6,0,1.3,0.5,1.3,1.3V14.2z M55.9,17.9v5.6H22.3c-1.5,0-2.8-1.3-2.8-2.8c0-1.5,1.3-2.8,2.8-2.8C22.3,17.9,55.9,17.9,55.9,17.9z"
		/>
</g>
</svg>
