<?xml version="1.0" encoding="utf-8"?>
<!-- Generator: Adobe Illustrator 25.2.1, SVG Export Plug-In . SVG Version: 6.00 Build 0)  -->
<svg version="1.1" id="Layer_1" xmlns="http://www.w3.org/2000/svg" xmlns:xlink="http://www.w3.org/1999/xlink" x="0px" y="0px"
	 viewBox="0 0 64 64" style="enable-background:new 0 0 64 64;" xml:space="preserve">
<style type="text/css">
	.st0{fill:#E03F2F;}
</style>
<g>
	<path class="st0" d="M33.8,18.4h3.6c0.3,0,0.6-0.3,0.6-0.6v-0.6c0-0.7,0.5-1.2,1.2-1.2s1.2,0.6,1.2,1.2v0.6c0,0.3,0.3,0.6,0.6,0.6
		c0.3,0,0.6-0.3,0.6-0.6v-1.2c0-1.7,1.4-3.1,3-3.1c1.7,0,3,1.4,3,3.1v1.2c0,0.3,0.3,0.6,0.6,0.6h3.6c0.3,0,0.6-0.3,0.6-0.6
		s-0.3-0.6-0.6-0.6h-3v-0.6c0-2.4-1.9-4.3-4.2-4.3c-1.9,0-3.4,1.2-4,3c-0.4-0.3-0.9-0.5-1.4-0.5c-1.3,0-2.4,1.1-2.4,2.5h-3
		c-0.3,0-0.6,0.3-0.6,0.6S33.4,18.4,33.8,18.4z"/>
	<path class="st0" d="M12,12.2h5c0.3,0,0.5-0.3,0.5-0.6c0-0.3-0.2-0.6-0.5-0.6h-5c-0.3,0-0.5,0.3-0.5,0.6C11.5,12,11.7,12.2,12,12.2
		z"/>
	<path class="st0" d="M43.4,52.4C43.4,52.4,43.4,52.4,43.4,52.4c-0.1-0.9-0.1-1.7-0.2-2.5c0,0,0,0,0,0c0,0,0,0,0-0.1
		c-0.9-6.8-3.4-10.4-5.5-12.7c0,0,0,0,0,0c-0.4-0.5-0.8-0.9-1.2-1.3c-0.4-0.5-0.8-0.8-1.1-1.2c0,0,0,0,0,0c-1.9-2.4-2.9-4.8-2.9-4.8
		c-0.1-0.2-0.3-0.3-0.4-0.3s-0.4,0.1-0.4,0.3c0,0-1,2.4-2.9,4.8c0,0,0,0,0,0c-0.3,0.4-0.7,0.7-1.1,1.2c-0.4,0.4-0.8,0.8-1.2,1.3
		c0,0,0,0,0,0c-2.1,2.3-4.7,5.9-5.5,12.7c0,0,0,0,0,0.1c0,0,0,0,0,0c-0.1,0.8-0.2,1.6-0.2,2.4c0,0,0,0,0,0.1c0,0,0,0,0,0
		c0,0.8-0.1,1.6-0.1,2.5c0,0.3,0.2,0.6,0.5,0.6s0.5-0.3,0.5-0.6c0-0.6,0-1.3,0-1.9h4v1.9c0,0.3,0.2,0.6,0.5,0.6s0.5-0.3,0.5-0.6
		V44.4c2,0.5,2,4.1,2,4.3v0.2v6c0,0.3,0.2,0.6,0.5,0.6s0.5-0.3,0.5-0.6v-6c0-2,1-3.8,2.5-4.5c1.5,0.7,2.5,2.5,2.5,4.5v6
		c0,0.3,0.2,0.6,0.5,0.6s0.5-0.3,0.5-0.6v-6v-0.2c0-0.2,0-3.7,2-4.3v10.4c0,0.3,0.2,0.6,0.5,0.6s0.5-0.3,0.5-0.6V53h4
		c0,0.6,0,1.2,0,1.9c0,0.3,0.2,0.6,0.5,0.6s0.5-0.3,0.5-0.6C43.5,54,43.5,53.2,43.4,52.4C43.4,52.4,43.4,52.4,43.4,52.4z M38.5,49.3
		v-1.2h3.4c0.1,0.4,0.2,0.8,0.2,1.2H38.5z M41.3,45.6c0.1,0.4,0.2,0.8,0.3,1.2h-1.1v-1.2H41.3z M34.5,41.9v-1.2h3v1.2H34.5z
		 M30.5,41.9v-1.2h3v1.2H30.5z M26.5,41.9v-1.2h3v1.2H26.5z M24.3,41.9c0.2-0.4,0.5-0.9,0.7-1.2h0.5v1.2H24.3z M31.5,38.2v1.2h-3
		v-1.2H31.5z M31,33.2h0.5v1.2h-1.4C30.5,34.1,30.7,33.6,31,33.2z M33,33.2c0.2,0.4,0.5,0.8,0.8,1.2h-1.4v-1.2H33z M33.5,35.7V37h-3
		v-1.2H33.5z M32.5,39.4v-1.2h3v1.2H32.5z M38.5,40.7H39c0.2,0.4,0.5,0.8,0.7,1.2h-1.2V40.7z M39.5,46.8h-1v-1.2h1V46.8z M38.1,39.4
		h-1.6v-1.2h0.6C37.5,38.6,37.8,39,38.1,39.4z M36,37h-1.5v-1.2h0.3c0.3,0.3,0.6,0.7,1,1.1C35.9,36.9,35.9,36.9,36,37z M32,31.4
		c0.1,0.2,0.2,0.4,0.3,0.6h-0.6C31.8,31.8,31.9,31.6,32,31.4z M29.2,35.7h0.3V37H28c0,0,0.1-0.1,0.1-0.1
		C28.6,36.4,28.9,36.1,29.2,35.7z M26.9,38.2h0.6v1.2h-1.6C26.2,39,26.5,38.6,26.9,38.2z M25.5,45.6v1.2h-1v-1.2H25.5z M21.9,49.3
		c0.1-0.4,0.1-0.8,0.2-1.2h3.4v1.2H21.9z M23.5,46.8h-1.1c0.1-0.4,0.2-0.8,0.3-1.2h0.8V46.8z M21.7,50.6h1.8v1.2h-1.9
		C21.7,51.4,21.7,51,21.7,50.6z M24.5,51.8v-1.2h1v1.2H24.5z M29,45.6h0.3c-0.1,0.1-0.1,0.3-0.2,0.4C29.1,45.9,29,45.7,29,45.6z
		 M34.7,45.6H35c-0.1,0.1-0.1,0.3-0.1,0.4C34.8,45.9,34.8,45.7,34.7,45.6z M35.7,44.4h-1.9c-0.5-0.5-1-0.9-1.7-1.2
		c-0.1,0-0.2,0-0.3,0c-0.6,0.3-1.2,0.7-1.7,1.2h-1.9c-0.5-0.7-1.3-1.2-2.3-1.2c-0.3,0-0.5,0.3-0.5,0.6v0.6h-2.4
		c0.2-0.4,0.3-0.8,0.5-1.2H26h12h2.3c0.2,0.4,0.3,0.8,0.5,1.2h-2.4v-0.6c0-0.3-0.2-0.6-0.5-0.6C37,43.1,36.2,43.6,35.7,44.4z
		 M38.5,50.6h1v1.2h-1V50.6z M40.5,51.8v-1.2h1.8c0,0.4,0.1,0.8,0.1,1.2H40.5z"/>
	<path class="st0" d="M8.3,31.9c2.3-1.9,4.1-3.1,4.7-3.5c1.6,1.4,2.8,3.4,3.6,4.9c0.1,0.2,0.3,0.3,0.4,0.3c0.1,0,0.2,0,0.3-0.1
		c0.2-0.2,0.3-0.6,0.1-0.9c-0.9-1.7-2.3-4-4.1-5.5c-0.1-0.1-0.3-0.1-0.5,0c-0.1,0.1-2.1,1.3-5.1,3.7c-0.2,0.2-0.3,0.6-0.1,0.9
		C7.7,32,8,32.1,8.3,31.9z"/>
	<path class="st0" d="M50.7,27.2c-1.8,1.5-3.2,3.8-4.1,5.5c-0.2,0.3-0.1,0.7,0.1,0.9c0.1,0.1,0.2,0.1,0.3,0.1c0.2,0,0.3-0.1,0.4-0.3
		c0.8-1.5,2.1-3.6,3.6-4.9c0.6,0.4,2.4,1.6,4.7,3.5c0.2,0.2,0.5,0.1,0.7-0.2c0.2-0.3,0.1-0.7-0.1-0.9c-3-2.5-5-3.7-5.1-3.7
		C51.1,27,50.9,27,50.7,27.2z"/>
	<path class="st0" d="M56,40.7c0.3,0,0.5-0.3,0.5-0.6c0-0.3-0.2-0.6-0.5-0.6h-2.5v-1.2H56c0.1,0,0.1,0,0.2,0c0,0,0.1-0.1,0.1-0.1
		c0,0,0,0,0.1,0c0,0,0,0,0-0.1c0,0,0.1-0.1,0.1-0.1c0.1-0.2,0.1-0.3,0-0.5c0-0.1-0.1-0.1-0.1-0.2c0,0,0,0,0,0c0,0,0,0,0,0
		c0,0,0,0,0,0c-2-2.5-5-4.9-5.1-5c-0.2-0.2-0.5-0.1-0.6,0.1c-0.4,0.5-2.8,3.6-4.1,6.7v-3.8c0-0.3-0.2-0.6-0.5-0.6h-4.8
		c-4.9-7.3-8.8-9.7-9-9.8c-0.1-0.1-0.3-0.1-0.4,0c-0.2,0.1-4.1,2.6-9,9.8H18c-0.3,0-0.5,0.3-0.5,0.6v3.8c-1.4-3.1-3.8-6.2-4.1-6.7
		c-0.2-0.2-0.4-0.3-0.6-0.1c-0.1,0.1-3.1,2.5-5.1,5c0,0.1-0.1,0.1-0.1,0.2c0,0,0,0.1,0,0.1c0,0,0,0.1,0,0.1c0,0,0,0.1,0,0.1
		c0,0,0,0.1,0,0.1c0.1,0.2,0.1,0.3,0.3,0.3c0,0,0.1,0,0.1,0c0,0,0.1,0,0.1,0h2.5v1.2H8c-0.3,0-0.5,0.3-0.5,0.6
		c0,0.3,0.2,0.6,0.5,0.6h0.5v1.2H8c-0.3,0-0.5,0.3-0.5,0.6c0,0.3,0.2,0.6,0.5,0.6h2.5v1.2H8c-0.3,0-0.5,0.3-0.5,0.6
		c0,0.3,0.2,0.6,0.5,0.6h0.5v1.2H8c-0.3,0-0.5,0.3-0.5,0.6s0.2,0.6,0.5,0.6h2.5v1.2H8c-0.3,0-0.5,0.3-0.5,0.6s0.2,0.6,0.5,0.6h0.5
		v1.2H8c-0.3,0-0.5,0.3-0.5,0.6C7.5,52.8,7.7,53,8,53h2.5v1.9c0,0.3,0.2,0.6,0.5,0.6s0.5-0.3,0.5-0.6V53h3v1.9
		c0,0.3,0.2,0.6,0.5,0.6s0.5-0.3,0.5-0.6V53h2v1.9c0,0.3,0.1,0.5,0.3,0.6c0.1,0,0.1,0,0.2,0s0.1,0,0.2,0c0.2-0.1,0.3-0.3,0.3-0.6
		V42.5c0,0,0,0,0,0v-6.8H23c0.1,0,0.3-0.1,0.4-0.2c4.2-6.2,7.7-8.9,8.6-9.6c0.9,0.6,4.4,3.3,8.6,9.6c0.1,0.1,0.2,0.2,0.4,0.2h4.5
		v6.8v12.4c0,0.1,0,0.2,0,0.2c0.1,0.2,0.3,0.4,0.5,0.4c0.1,0,0.1,0,0.2,0c0.1-0.1,0.2-0.2,0.3-0.3c0-0.1,0-0.2,0-0.2V53h2v1.9
		c0,0.3,0.2,0.6,0.5,0.6s0.5-0.3,0.5-0.6V53h3v1.9c0,0.3,0.2,0.6,0.5,0.6s0.5-0.3,0.5-0.6V53H56c0.3,0,0.5-0.3,0.5-0.6
		c0-0.3-0.2-0.6-0.5-0.6h-0.5v-1.2H56c0.3,0,0.5-0.3,0.5-0.6s-0.2-0.6-0.5-0.6h-2.5v-1.2H56c0.3,0,0.5-0.3,0.5-0.6s-0.2-0.6-0.5-0.6
		h-0.5v-1.2H56c0.3,0,0.5-0.3,0.5-0.6c0-0.3-0.2-0.6-0.5-0.6h-2.5v-1.2H56c0.3,0,0.5-0.3,0.5-0.6c0-0.3-0.2-0.6-0.5-0.6h-0.5v-1.2
		H56z M17.5,45.6v1.2h-4v-1.2H17.5z M17.1,40.7c0.2,0.4,0.3,0.9,0.3,1.2h-3.9v-1.2H17.1z M9.3,37c0.4-0.4,0.8-0.8,1.2-1.2h2V37H9.3z
		 M13.5,35.7h1c0.3,0.4,0.5,0.8,0.8,1.2h-1.8V35.7z M16,38.2c0.2,0.4,0.4,0.8,0.6,1.2h-1.1v-1.2H16z M17.5,43.1v1.2h-2v-1.2H17.5z
		 M17.5,48.1v1.2h-2v-1.2H17.5z M12.9,33.4c0.2,0.3,0.5,0.7,0.7,1h-1.9C12.2,34,12.7,33.7,12.9,33.4z M11.5,38.2h3v1.2h-3V38.2z
		 M9.5,40.7h3v1.2h-3V40.7z M11.5,43.1h3v1.2h-3V43.1z M9.5,45.6h3v1.2h-3V45.6z M11.5,48.1h3v1.2h-3V48.1z M9.5,50.6h3v1.2h-3V50.6
		z M13.5,51.8v-1.2h4v1.2H13.5z M52.5,39.4h-3v-1.2h3V39.4z M46.6,41.9c0.1-0.4,0.2-0.8,0.3-1.2h3.6v1.2H46.6z M46.5,46.8v-1.2h4
		v1.2H46.5z M46.5,49.3v-1.2h2v1.2H46.5z M46.5,44.4v-1.2h2v1.2H46.5z M48,38.2h0.5v1.2h-1.1C47.6,39,47.8,38.6,48,38.2z M49.5,35.7
		h1V37h-1.8C49,36.5,49.3,36.1,49.5,35.7z M53.5,35.7c0.4,0.4,0.8,0.8,1.2,1.2h-3.2v-1.2H53.5z M51.1,33.4c0.3,0.2,0.7,0.6,1.2,1
		h-1.9C50.6,34.1,50.9,33.7,51.1,33.4z M46.5,50.6h4v1.2h-4V50.6z M54.5,51.8h-3v-1.2h3V51.8z M52.5,49.3h-3v-1.2h3V49.3z
		 M54.5,46.8h-3v-1.2h3V46.8z M52.5,44.4h-3v-1.2h3V44.4z M54.5,41.9h-3v-1.2h3V41.9z"/>
</g>
</svg>
