<?xml version="1.0" encoding="utf-8"?>
<!-- Generator: Adobe Illustrator 25.2.1, SVG Export Plug-In . SVG Version: 6.00 Build 0)  -->
<svg version="1.1" id="Layer_1" xmlns="http://www.w3.org/2000/svg" xmlns:xlink="http://www.w3.org/1999/xlink" x="0px" y="0px"
	 viewBox="0 0 64 64" style="enable-background:new 0 0 64 64;" xml:space="preserve">
<style type="text/css">
	.st0{fill:#E03F2F;}
</style>
<g>
	<path class="st0" d="M53.8,24.9h-1.2c-0.2-0.3-0.4-0.5-0.7-0.8L37,9.2c-2.1-2.1-5.6-2.1-7.7,0l-23,23c-1,1-1.6,2.4-1.6,3.8
		c0,1.5,0.6,2.8,1.6,3.8c0,0,0,0,0,0l9.4,9.4v1.6c0,3,2.4,5.4,5.4,5.4h32.7c3,0,5.4-2.4,5.4-5.4V30.3C59.2,27.3,56.8,24.9,53.8,24.9
		z M18.2,35.4h38.5v1.5H18.2V35.4z M56.7,30.3v2.6H18.2v-2.6c0-1.6,1.3-2.9,2.9-2.9h32.7C55.4,27.4,56.7,28.7,56.7,30.3z M8.1,38.2
		C8.1,38.2,8.1,38.1,8.1,38.2c-0.6-0.6-0.9-1.3-0.9-2.1c0-0.8,0.3-1.5,0.9-2.1l23-23c1.1-1.1,3-1.1,4.2,0l13.9,13.9h-28
		c-3,0-5.4,2.4-5.4,5.4v15.5L8.1,38.2z M53.8,53.9H21.2c-1.6,0-2.9-1.3-2.9-2.9v-2c0-0.1,0-0.1,0-0.2v-9.3h38.5v11.6
		C56.7,52.6,55.4,53.9,53.8,53.9z"/>
	<path class="st0" d="M31,42.9h-8c-0.7,0-1.2,0.6-1.2,1.2s0.6,1.2,1.2,1.2h8c0.7,0,1.2-0.6,1.2-1.2S31.7,42.9,31,42.9z"/>
	<path class="st0" d="M28,46.9h-5c-0.7,0-1.2,0.6-1.2,1.2s0.6,1.2,1.2,1.2h5c0.7,0,1.2-0.6,1.2-1.2S28.7,46.9,28,46.9z"/>
	<path class="st0" d="M40,42.9h-5c-0.7,0-1.2,0.6-1.2,1.2s0.6,1.2,1.2,1.2h5c0.7,0,1.2-0.6,1.2-1.2S40.7,42.9,40,42.9z"/>
</g>
</svg>
