<?xml version="1.0" encoding="utf-8"?>
<!-- Generator: Adobe Illustrator 25.2.1, SVG Export Plug-In . SVG Version: 6.00 Build 0)  -->
<svg version="1.1" id="Layer_1" xmlns="http://www.w3.org/2000/svg" xmlns:xlink="http://www.w3.org/1999/xlink" x="0px" y="0px"
	 viewBox="0 0 60 60" style="enable-background:new 0 0 60 60;" xml:space="preserve">
<style type="text/css">
	.st0{fill:#E03F2F;}
</style>
<g>
	<path class="st0" d="M50.3,15.3h0.9c0.5,0,0.9-0.4,0.9-0.9c0,0,0,0,0,0V8.8c0-0.5-0.4-0.9-0.9-0.9c0,0,0,0,0,0H8.8
		c-0.5,0-0.9,0.4-0.9,0.9c0,0,0,0,0,0v5.5c0,0.5,0.4,0.9,0.9,0.9c0,0,0,0,0,0h0.9v31.3H8.8c-0.5,0-0.9,0.4-0.9,0.9c0,0,0,0,0,0v3.7
		c0,0.5,0.4,0.9,0.9,0.9c0,0,0,0,0,0h42.4c0.5,0,0.9-0.4,0.9-0.9c0,0,0,0,0,0v-3.7c0-0.5-0.4-0.9-0.9-0.9c0,0,0,0,0,0h-0.9V15.3z
		 M9.7,9.7h7.4v0.9c0,0.5,0.4,0.9,0.9,0.9s0.9-0.4,0.9-0.9V9.7h18.4v0.9c0,0.5,0.4,0.9,0.9,0.9c0.5,0,0.9-0.4,0.9-0.9V9.7h11.1v3.7
		H30v-0.9c0-0.5-0.4-0.9-0.9-0.9c-0.5,0-0.9,0.4-0.9,0.9v0.9H9.7V9.7z M50.3,50.3H9.7v-1.8h40.5V50.3z M18.9,33.7
		c0-6.1,4.9-11.1,11.1-11.1s11.1,4.9,11.1,11.1v12.9h-3.4c1-1.4,1.5-3.1,1.5-4.8c0-0.2,0-0.5,0-0.9C39,38.4,38,36,36.3,34.1
		c-1.3-1.4-2-3.1-2-5c0-0.5-0.4-0.9-0.9-0.9c-0.2,0-0.4,0.1-0.5,0.2c-2.1,1.5-3.6,3.6-4.5,6c-0.4,1.2-0.6,2.4-0.7,3.7l0,0
		c-0.4-0.6-0.7-1.3-0.6-2.1c0-0.5-0.4-0.9-0.9-0.9c-0.1,0-0.3,0-0.4,0.1c-0.1,0.1-2.8,1.4-3,6.3c0,0.2,0,0.3,0,0.5
		c0,1.7,0.5,3.4,1.5,4.8h-5.2V33.7z M26.6,46.6c-1.3-1.3-2.1-3-2.1-4.8c0-0.1,0-0.2,0-0.4c0-1.3,0.3-2.5,0.9-3.6
		c0.2,0.6,0.5,1.1,0.9,1.5c0.6,0.6,1.4,0.9,2.2,0.9c0.5,0,0.9-0.4,0.9-0.9c0,0,0,0,0,0c0-1.5,0.2-2.9,0.7-4.3c0.5-1.5,1.4-2.9,2.6-4
		c0.4,1.6,1.2,3,2.2,4.3c1.4,1.6,2.3,3.7,2.5,5.8l0,0.2c0,0.2,0,0.4,0,0.6c0,1.8-0.8,3.6-2.1,4.8H26.6z M42.9,46.6v-1.8h0.9
		c0.5,0,0.9-0.4,0.9-0.9s-0.4-0.9-0.9-0.9h-0.9v-9.2c0-1.2-0.2-2.5-0.5-3.7h1.5c0.5,0,0.9-0.4,0.9-0.9c0-0.5-0.4-0.9-0.9-0.9H42
		c-0.1,0-0.2,0-0.3,0.1C38.6,21.8,31,19,24.5,22c-4.5,2.1-7.4,6.7-7.4,11.7v1.8h-0.9c-0.5,0-0.9,0.4-0.9,0.9s0.4,0.9,0.9,0.9h0.9
		v9.2h-5.5v-1.8h0.9c0.5,0,0.9-0.4,0.9-0.9s-0.4-0.9-0.9-0.9h-0.9V30h1.8c0.5,0,0.9-0.4,0.9-0.9c0-0.5-0.4-0.9-0.9-0.9h-1.8V15.3
		h36.8v20.3h-0.9c-0.5,0-0.9,0.4-0.9,0.9s0.4,0.9,0.9,0.9h0.9v9.2H42.9z"/>
	<path class="st0" d="M36.4,17.1h-1.8c-0.5,0-0.9,0.4-0.9,0.9s0.4,0.9,0.9,0.9h1.8c0.5,0,0.9-0.4,0.9-0.9S37,17.1,36.4,17.1z"/>
	<path class="st0" d="M45.7,20.8h-1.8c-0.5,0-0.9,0.4-0.9,0.9s0.4,0.9,0.9,0.9h1.8c0.5,0,0.9-0.4,0.9-0.9S46.2,20.8,45.7,20.8z"/>
	<path class="st0" d="M19.9,20.8H18c-0.5,0-0.9,0.4-0.9,0.9s0.4,0.9,0.9,0.9h1.8c0.5,0,0.9-0.4,0.9-0.9S20.4,20.8,19.9,20.8z"/>
	<path class="st0" d="M16.2,17.1h-1.8c-0.5,0-0.9,0.4-0.9,0.9s0.4,0.9,0.9,0.9h1.8c0.5,0,0.9-0.4,0.9-0.9S16.7,17.1,16.2,17.1z"/>
</g>
</svg>
