<?xml version="1.0" encoding="utf-8"?>
<!-- Generator: Adobe Illustrator 25.2.1, SVG Export Plug-In . SVG Version: 6.00 Build 0)  -->
<svg version="1.1" id="Layer_1" xmlns="http://www.w3.org/2000/svg" xmlns:xlink="http://www.w3.org/1999/xlink" x="0px" y="0px"
	 viewBox="0 0 65 65" style="enable-background:new 0 0 65 65;" xml:space="preserve">
<style type="text/css">
	.st0{fill:#E03F2F;}
</style>
<g>
	<path class="st0" d="M6.6,15.4v34.2h51.9V15.4H6.6z M8.7,47.5v-30h36.4v30H8.7z M47.2,47.5v-30h9.1v30H47.2z"/>
	<path class="st0" d="M51.8,18.6c-1.9,0-3.5,1.6-3.5,3.5c0,1.9,1.6,3.5,3.5,3.5s3.5-1.6,3.5-3.5C55.2,20.2,53.7,18.6,51.8,18.6z
		 M53.1,22.1c0,0.7-0.6,1.4-1.4,1.4s-1.4-0.6-1.4-1.4s0.6-1.4,1.4-1.4S53.1,21.3,53.1,22.1z"/>
	<circle class="st0" cx="51.8" cy="33.3" r="1.9"/>
	<circle class="st0" cx="51.8" cy="39.7" r="1.9"/>
	<path class="st0" d="M38.1,20.2H15.6c-2.4,0-4.3,1.9-4.3,4.3v16.1c0,2.4,1.9,4.3,4.3,4.3h22.5c2.4,0,4.3-1.9,4.3-4.3V24.5
		C42.4,22.1,40.5,20.2,38.1,20.2z M13.5,24.5c0-1.2,1-2.2,2.2-2.2h22.5c1.2,0,2.2,1,2.2,2.2v16.1c0,1.2-1,2.2-2.2,2.2H15.6
		c-1.2,0-2.2-1-2.2-2.2V24.5z"/>
</g>
</svg>
