<?xml version="1.0" encoding="utf-8"?>
<!-- Generator: Adobe Illustrator 25.2.1, SVG Export Plug-In . SVG Version: 6.00 Build 0)  -->
<svg version="1.1" id="Layer_1" xmlns="http://www.w3.org/2000/svg" xmlns:xlink="http://www.w3.org/1999/xlink" x="0px" y="0px"
	 viewBox="0 0 64 64" style="enable-background:new 0 0 64 64;" xml:space="preserve">
<style type="text/css">
	.st0{fill:#E03F2F;}
</style>
<g>
	<path class="st0" d="M18,43.5h-1c-0.3,0-0.5,0.2-0.5,0.5s0.2,0.5,0.5,0.5h1c0.3,0,0.5-0.2,0.5-0.5S18.3,43.5,18,43.5z"/>
	<path class="st0" d="M21,43.5h-1c-0.3,0-0.5,0.2-0.5,0.5s0.2,0.5,0.5,0.5h1c0.3,0,0.5-0.2,0.5-0.5S21.3,43.5,21,43.5z"/>
	<path class="st0" d="M18,45.5h-1c-0.3,0-0.5,0.2-0.5,0.5s0.2,0.5,0.5,0.5h1c0.3,0,0.5-0.2,0.5-0.5S18.3,45.5,18,45.5z"/>
	<path class="st0" d="M21,45.5h-1c-0.3,0-0.5,0.2-0.5,0.5s0.2,0.5,0.5,0.5h1c0.3,0,0.5-0.2,0.5-0.5S21.3,45.5,21,45.5z"/>
	<path class="st0" d="M18,47.5h-1c-0.3,0-0.5,0.2-0.5,0.5s0.2,0.5,0.5,0.5h1c0.3,0,0.5-0.2,0.5-0.5S18.3,47.5,18,47.5z"/>
	<path class="st0" d="M21,47.5h-1c-0.3,0-0.5,0.2-0.5,0.5s0.2,0.5,0.5,0.5h1c0.3,0,0.5-0.2,0.5-0.5S21.3,47.5,21,47.5z"/>
	<path class="st0" d="M18,49.5h-1c-0.3,0-0.5,0.2-0.5,0.5s0.2,0.5,0.5,0.5h1c0.3,0,0.5-0.2,0.5-0.5S18.3,49.5,18,49.5z"/>
	<path class="st0" d="M21,49.5h-1c-0.3,0-0.5,0.2-0.5,0.5s0.2,0.5,0.5,0.5h1c0.3,0,0.5-0.2,0.5-0.5S21.3,49.5,21,49.5z"/>
	<path class="st0" d="M18,51.5h-1c-0.3,0-0.5,0.2-0.5,0.5s0.2,0.5,0.5,0.5h1c0.3,0,0.5-0.2,0.5-0.5S18.3,51.5,18,51.5z"/>
	<path class="st0" d="M21,51.5h-1c-0.3,0-0.5,0.2-0.5,0.5s0.2,0.5,0.5,0.5h1c0.3,0,0.5-0.2,0.5-0.5S21.3,51.5,21,51.5z"/>
	<path class="st0" d="M18,53.5h-1c-0.3,0-0.5,0.2-0.5,0.5s0.2,0.5,0.5,0.5h1c0.3,0,0.5-0.2,0.5-0.5S18.3,53.5,18,53.5z"/>
	<path class="st0" d="M21,53.5h-1c-0.3,0-0.5,0.2-0.5,0.5s0.2,0.5,0.5,0.5h1c0.3,0,0.5-0.2,0.5-0.5S21.3,53.5,21,53.5z"/>
	<path class="st0" d="M20,39.5h-2c-0.3,0-0.5,0.2-0.5,0.5s0.2,0.5,0.5,0.5h2c0.3,0,0.5-0.2,0.5-0.5S20.3,39.5,20,39.5z"/>
	<path class="st0" d="M20,37.5h-2c-0.3,0-0.5,0.2-0.5,0.5s0.2,0.5,0.5,0.5h2c0.3,0,0.5-0.2,0.5-0.5S20.3,37.5,20,37.5z"/>
	<path class="st0" d="M20,35.5h-2c-0.3,0-0.5,0.2-0.5,0.5s0.2,0.5,0.5,0.5h2c0.3,0,0.5-0.2,0.5-0.5S20.3,35.5,20,35.5z"/>
	<path class="st0" d="M19.5,31.5h-1c-0.3,0-0.5,0.2-0.5,0.5s0.2,0.5,0.5,0.5h1c0.3,0,0.5-0.2,0.5-0.5S19.8,31.5,19.5,31.5z"/>
	<path class="st0" d="M19.5,29.5h-1c-0.3,0-0.5,0.2-0.5,0.5s0.2,0.5,0.5,0.5h1c0.3,0,0.5-0.2,0.5-0.5S19.8,29.5,19.5,29.5z"/>
	<path class="st0" d="M44,43.5h-1c-0.3,0-0.5,0.2-0.5,0.5s0.2,0.5,0.5,0.5h1c0.3,0,0.5-0.2,0.5-0.5S44.3,43.5,44,43.5z"/>
	<path class="st0" d="M47,43.5h-1c-0.3,0-0.5,0.2-0.5,0.5s0.2,0.5,0.5,0.5h1c0.3,0,0.5-0.2,0.5-0.5S47.3,43.5,47,43.5z"/>
	<path class="st0" d="M44,45.5h-1c-0.3,0-0.5,0.2-0.5,0.5s0.2,0.5,0.5,0.5h1c0.3,0,0.5-0.2,0.5-0.5S44.3,45.5,44,45.5z"/>
	<path class="st0" d="M47,45.5h-1c-0.3,0-0.5,0.2-0.5,0.5s0.2,0.5,0.5,0.5h1c0.3,0,0.5-0.2,0.5-0.5S47.3,45.5,47,45.5z"/>
	<path class="st0" d="M44,47.5h-1c-0.3,0-0.5,0.2-0.5,0.5s0.2,0.5,0.5,0.5h1c0.3,0,0.5-0.2,0.5-0.5S44.3,47.5,44,47.5z"/>
	<path class="st0" d="M47,47.5h-1c-0.3,0-0.5,0.2-0.5,0.5s0.2,0.5,0.5,0.5h1c0.3,0,0.5-0.2,0.5-0.5S47.3,47.5,47,47.5z"/>
	<path class="st0" d="M44,49.5h-1c-0.3,0-0.5,0.2-0.5,0.5s0.2,0.5,0.5,0.5h1c0.3,0,0.5-0.2,0.5-0.5S44.3,49.5,44,49.5z"/>
	<path class="st0" d="M47,49.5h-1c-0.3,0-0.5,0.2-0.5,0.5s0.2,0.5,0.5,0.5h1c0.3,0,0.5-0.2,0.5-0.5S47.3,49.5,47,49.5z"/>
	<path class="st0" d="M44,51.5h-1c-0.3,0-0.5,0.2-0.5,0.5s0.2,0.5,0.5,0.5h1c0.3,0,0.5-0.2,0.5-0.5S44.3,51.5,44,51.5z"/>
	<path class="st0" d="M47,51.5h-1c-0.3,0-0.5,0.2-0.5,0.5s0.2,0.5,0.5,0.5h1c0.3,0,0.5-0.2,0.5-0.5S47.3,51.5,47,51.5z"/>
	<path class="st0" d="M44,53.5h-1c-0.3,0-0.5,0.2-0.5,0.5s0.2,0.5,0.5,0.5h1c0.3,0,0.5-0.2,0.5-0.5S44.3,53.5,44,53.5z"/>
	<path class="st0" d="M47,53.5h-1c-0.3,0-0.5,0.2-0.5,0.5s0.2,0.5,0.5,0.5h1c0.3,0,0.5-0.2,0.5-0.5S47.3,53.5,47,53.5z"/>
	<path class="st0" d="M46,39.5h-2c-0.3,0-0.5,0.2-0.5,0.5s0.2,0.5,0.5,0.5h2c0.3,0,0.5-0.2,0.5-0.5S46.3,39.5,46,39.5z"/>
	<path class="st0" d="M46,37.5h-2c-0.3,0-0.5,0.2-0.5,0.5s0.2,0.5,0.5,0.5h2c0.3,0,0.5-0.2,0.5-0.5S46.3,37.5,46,37.5z"/>
	<path class="st0" d="M46,35.5h-2c-0.3,0-0.5,0.2-0.5,0.5s0.2,0.5,0.5,0.5h2c0.3,0,0.5-0.2,0.5-0.5S46.3,35.5,46,35.5z"/>
	<path class="st0" d="M45.5,31.5h-1c-0.3,0-0.5,0.2-0.5,0.5s0.2,0.5,0.5,0.5h1c0.3,0,0.5-0.2,0.5-0.5S45.8,31.5,45.5,31.5z"/>
	<path class="st0" d="M45.5,29.5h-1c-0.3,0-0.5,0.2-0.5,0.5s0.2,0.5,0.5,0.5h1c0.3,0,0.5-0.2,0.5-0.5S45.8,29.5,45.5,29.5z"/>
	<path class="st0" d="M52,41.5h-1h-0.5v-7H51c0.3,0,0.5-0.2,0.5-0.5s-0.2-0.5-0.5-0.5h-1h-0.5v-5H50c0.3,0,0.5-0.2,0.5-0.5
		s-0.2-0.5-0.5-0.5h-1h-0.5v-3H49c0.3,0,0.5-0.2,0.5-0.5s-0.2-0.5-0.5-0.5h-1h-0.5v-3H48c0.3,0,0.5-0.2,0.5-0.5s-0.2-0.5-0.5-0.5
		h-0.7l-1.8-3.6v-0.4H46c0.3,0,0.5-0.2,0.5-0.5s-0.2-0.5-0.5-0.5h-0.5V10c0-0.3-0.2-0.5-0.5-0.5s-0.5,0.2-0.5,0.5v4.5H44
		c-0.3,0-0.5,0.2-0.5,0.5s0.2,0.5,0.5,0.5h0.5v0.4l-1.8,3.6H42c-0.3,0-0.5,0.2-0.5,0.5s0.2,0.5,0.5,0.5h0.5v3H42h-1
		c-0.3,0-0.5,0.2-0.5,0.5s0.2,0.5,0.5,0.5h0.5v3H41h-1c-0.3,0-0.5,0.2-0.5,0.5s0.2,0.5,0.5,0.5h0.5v5H40h-1c-0.3,0-0.5,0.2-0.5,0.5
		s0.2,0.5,0.5,0.5h0.5v7H39h-1c-0.3,0-0.5,0.2-0.5,0.5s0.2,0.5,0.5,0.5h0.5v4h-13v-4H26c0.3,0,0.5-0.2,0.5-0.5s-0.2-0.5-0.5-0.5h-1
		h-0.5v-7H25c0.3,0,0.5-0.2,0.5-0.5s-0.2-0.5-0.5-0.5h-1h-0.5v-5H24c0.3,0,0.5-0.2,0.5-0.5s-0.2-0.5-0.5-0.5h-1h-0.5v-3H23
		c0.3,0,0.5-0.2,0.5-0.5s-0.2-0.5-0.5-0.5h-1h-0.5v-3H22c0.3,0,0.5-0.2,0.5-0.5s-0.2-0.5-0.5-0.5h-0.7l-1.8-3.6v-0.4H20
		c0.3,0,0.5-0.2,0.5-0.5s-0.2-0.5-0.5-0.5h-0.5V10c0-0.3-0.2-0.5-0.5-0.5s-0.5,0.2-0.5,0.5v4.5H18c-0.3,0-0.5,0.2-0.5,0.5
		s0.2,0.5,0.5,0.5h0.5v0.4l-1.8,3.6H16c-0.3,0-0.5,0.2-0.5,0.5s0.2,0.5,0.5,0.5h0.5v3H16h-1c-0.3,0-0.5,0.2-0.5,0.5s0.2,0.5,0.5,0.5
		h0.5v3H15h-1c-0.3,0-0.5,0.2-0.5,0.5s0.2,0.5,0.5,0.5h0.5v5H14h-1c-0.3,0-0.5,0.2-0.5,0.5s0.2,0.5,0.5,0.5h0.5v7H13h-1
		c-0.3,0-0.5,0.2-0.5,0.5s0.2,0.5,0.5,0.5h0.5V54c0,0.3,0.2,0.5,0.5,0.5s0.5-0.2,0.5-0.5V42.5H14h0.5V54c0,0.3,0.2,0.5,0.5,0.5
		s0.5-0.2,0.5-0.5V42.5H16h6h0.5V54c0,0.3,0.2,0.5,0.5,0.5s0.5-0.2,0.5-0.5V42.5H24h0.5V47v2v5c0,0.3,0.2,0.5,0.5,0.5
		s0.5-0.2,0.5-0.5v-4.5H31c-0.7,1-2.1,2.8-3.4,4.1c-0.2,0.2-0.2,0.5,0,0.7c0.2,0.2,0.5,0.2,0.7,0c1.5-1.5,3-3.5,3.6-4.5
		c0.7,1,2.2,3,3.6,4.5c0.1,0.1,0.2,0.1,0.4,0.1s0.3,0,0.4-0.1c0.2-0.2,0.2-0.5,0-0.7c-1.3-1.3-2.7-3.1-3.4-4.1h5.5V54
		c0,0.3,0.2,0.5,0.5,0.5s0.5-0.2,0.5-0.5v-5v-2v-4.5H40h0.5V54c0,0.3,0.2,0.5,0.5,0.5s0.5-0.2,0.5-0.5V42.5H42h6h0.5V54
		c0,0.3,0.2,0.5,0.5,0.5s0.5-0.2,0.5-0.5V42.5H50h0.5V54c0,0.3,0.2,0.5,0.5,0.5s0.5-0.2,0.5-0.5V42.5H52c0.3,0,0.5-0.2,0.5-0.5
		S52.3,41.5,52,41.5z M22.5,33.5H22h-0.5v-5H22h0.5V33.5z M17.5,33.5v-5H18h2h0.5v5H17.5z M18.5,24.5h1v3h-1V24.5z M21.5,27.5H21
		h-0.5v-3H21h0.5V27.5z M20.5,21.5h-3v-1h3V21.5z M19,17.1l1.2,2.4h-2.4L19,17.1z M17.5,22.5h3v1H20h-2h-0.5V22.5z M16.5,24.5H17
		h0.5v3H17h-0.5V24.5z M15.5,28.5H16h0.5v5H16h-0.5V28.5z M14.5,34.5H15h0.5v7H15h-0.5V34.5z M16.5,34.5H17h4h0.5v7h-5V34.5z
		 M23,41.5h-0.5v-7H23h0.5v7H23z M25.5,48.5v-1h13v1H25.5z M48.5,33.5H48h-0.5v-5H48h0.5V33.5z M43.5,33.5v-5H44h2h0.5v5H43.5z
		 M44.5,24.5h1v3h-1V24.5z M47.5,27.5H47h-0.5v-3H47h0.5V27.5z M46.5,21.5h-3v-1h3V21.5z M45,17.1l1.2,2.4h-2.4L45,17.1z M43.5,22.5
		h3v1H46h-2h-0.5V22.5z M42.5,24.5H43h0.5v3H43h-0.5V24.5z M41.5,28.5H42h0.5v5H42h-0.5V28.5z M40.5,34.5H41h0.5v7H41h-0.5V34.5z
		 M42.5,34.5H43h4h0.5v7h-5V34.5z M49,41.5h-0.5v-7H49h0.5v7H49z"/>
	<path class="st0" d="M28,14.4c0.2,0.1,0.5,0.1,0.7-0.2c0.3-0.5,0.8-0.8,1.3-0.8c0.7,0,1.2,0.4,1.4,1H31c-0.3,0-0.5,0.2-0.5,0.5
		s0.2,0.5,0.5,0.5h2c0.3,0,0.5-0.2,0.5-0.5s-0.2-0.5-0.5-0.5h-0.4c0.2-0.6,0.8-1,1.4-1c0.5,0,1,0.3,1.3,0.8c0.1,0.2,0.4,0.3,0.7,0.2
		c0.2-0.1,0.3-0.4,0.2-0.7c-0.4-0.8-1.3-1.2-2.2-1.2c-0.8,0-1.5,0.4-2,1c-0.5-0.6-1.2-1-2-1c-0.9,0-1.7,0.5-2.2,1.2
		C27.7,14,27.8,14.3,28,14.4z"/>
	<path class="st0" d="M37,22.5h3c0.3,0,0.5-0.2,0.5-0.5s-0.2-0.5-0.5-0.5h-3c-0.3,0-0.5,0.2-0.5,0.5S36.7,22.5,37,22.5z"/>
	<path class="st0" d="M54,12.5h-5c-0.3,0-0.5,0.2-0.5,0.5s0.2,0.5,0.5,0.5h5c0.3,0,0.5-0.2,0.5-0.5S54.3,12.5,54,12.5z"/>
	<path class="st0" d="M12.5,31c0-0.3-0.2-0.5-0.5-0.5H8c-0.3,0-0.5,0.2-0.5,0.5s0.2,0.5,0.5,0.5h4C12.3,31.5,12.5,31.3,12.5,31z"/>
</g>
</svg>
