<?xml version="1.0" encoding="utf-8"?>
<!-- Generator: Adobe Illustrator 25.2.1, SVG Export Plug-In . SVG Version: 6.00 Build 0)  -->
<svg version="1.1" id="Слой_1" xmlns="http://www.w3.org/2000/svg" xmlns:xlink="http://www.w3.org/1999/xlink" x="0px" y="0px"
	 viewBox="0 0 100 100" style="enable-background:new 0 0 100 100;" xml:space="preserve">
<style type="text/css">
	.st0{fill:#DF402F;}
</style>
<g>
	<path class="st0" d="M96.1,3.9c-3.1-3.1-8-3.1-11.1,0c0,0,0,0,0,0l-26,26l-1.4-1.4c-0.6-0.6-1.5-0.6-2.1,0c0,0,0,0,0,0L45,38.9l0,0
		c-8.7-2.7-18.1-0.4-24.5,6C13.4,52,10.9,61.6,8.7,70.2c-0.2,0.8-0.4,1.7-0.6,2.5l-5.9,4.7c-0.3,0.3-0.6,0.7-0.6,1.1
		c0,1.1,0.7,3.1,3.3,3.9c-0.5,1.1-1.1,2.3-1.8,3.3c-0.5,0.7-0.3,1.6,0.4,2.1c0.2,0.1,0.4,0.2,0.6,0.2c6.2,1.1,12.4,1.7,18.7,1.8
		c11.3,0,24.1-2.2,32.2-10.3c6.4-6.4,8.7-15.8,6-24.5l0,0l10.5-10.4c0.3-0.3,0.4-0.7,0.4-1.1c0-0.4-0.2-0.8-0.4-1l-1.4-1.5l26-25.9
		C99.2,12,99.2,7,96.1,3.9C96.1,3.9,96.1,3.9,96.1,3.9z M22.6,47.1c7.1-7,18-8.3,26.5-3c-4.4,0.8-8.7,1.9-13,3.3
		c-9.3,3.3-18.1,12.7-23.3,19C14.8,59.3,17.3,52.4,22.6,47.1z M52.3,46.5c0.2,0.2,0.4,0.3,0.6,0.5c1.1,1.1,2.2,2.4,3,3.7
		c-5,0.5-18.8,2.4-31.8,8c4-3.7,8.5-7,13.1-8.6C42.1,48.6,47.2,47.4,52.3,46.5z M52.9,77.3C41,89.2,18.1,87.3,6.8,85.5
		c0.4-0.8,0.9-1.7,1.3-2.7c3.6-0.3,16.6-1.5,24.5-3.4C41.8,77,50.8,67,51.2,66.6c0.6-0.6,0.5-1.6-0.1-2.1c-0.6-0.6-1.6-0.5-2.1,0.1
		c-0.1,0.1-8.8,9.7-17.2,11.8C23.4,78.5,8.4,79.7,7,79.8c-0.8,0-1.5-0.2-2.1-0.7L10,75c1.9-0.2,9.3-1,14.4-2.5
		c6-1.8,8.8-4.4,8.9-4.5c0.6-0.6,0.6-1.5,0-2.1c-0.6-0.6-1.5-0.6-2.1-0.1c0,0,0,0,0,0c0,0-2.4,2.3-7.7,3.8c-3.6,0.9-7.3,1.6-11,2
		c1.2-1.6,2.9-3.7,4.9-6C32.8,56.3,53.7,54,57.4,53.7C60.9,61.8,59.1,71.1,52.9,77.3z M59.9,51.9c-2.4-5.2-6.6-9.4-11.8-11.8
		l8.4-8.4l8.5,8.5l1.9,1.9l0,0l1.4,1.4L59.9,51.9z M93.9,12.9l-26,26L61.1,32l26-26c1.9-1.9,4.9-1.9,6.8,0S95.8,11,93.9,12.9
		L93.9,12.9L93.9,12.9z"/>
	<path class="st0" d="M78,78.8H60.6c-0.8,0-1.5,0.7-1.5,1.5c0,0.8,0.7,1.5,1.5,1.5H78c1.5,0,2.6,1.2,2.6,2.6c0,1.5-1.2,2.6-2.6,2.6
		h-9.1c-0.8,0-1.5,0.7-1.5,1.5c0,3.8-3,6.8-6.8,6.8H3.1c-0.8,0-1.5,0.7-1.5,1.5c0,0.8,0.7,1.5,1.5,1.5h57.5c4.8,0,9-3.5,9.7-8.3H78
		c3.1,0,5.7-2.5,5.7-5.7C83.6,81.3,81.1,78.8,78,78.8z"/>
	<path class="st0" d="M89.3,58.3H87v-3.8c0-0.8-0.7-1.5-1.5-1.5c-0.8,0-1.5,0.7-1.5,1.5v3.8h-2.3c-0.8,0-1.5,0.7-1.5,1.5
		s0.7,1.5,1.5,1.5H84v3.8c0,0.8,0.7,1.5,1.5,1.5c0.8,0,1.5-0.7,1.5-1.5v-3.8h2.3c0.8,0,1.5-0.7,1.5-1.5S90.1,58.3,89.3,58.3z"/>
	<path class="st0" d="M11.4,28.8h3v3.8c0,0.8,0.7,1.5,1.5,1.5c0.8,0,1.5-0.7,1.5-1.5v-3.8h3c0.8,0,1.5-0.7,1.5-1.5s-0.7-1.5-1.5-1.5
		h-3V22c0-0.8-0.7-1.5-1.5-1.5c-0.8,0-1.5,0.7-1.5,1.5v3.8h-3c-0.8,0-1.5,0.7-1.5,1.5S10.6,28.8,11.4,28.8z"/>
	<path class="st0" d="M51.5,9.9h3v3.8c0,0.8,0.7,1.5,1.5,1.5s1.5-0.7,1.5-1.5V9.9h3c0.8,0,1.5-0.7,1.5-1.5s-0.7-1.5-1.5-1.5h-3V3.1
		c0-0.8-0.7-1.5-1.5-1.5s-1.5,0.7-1.5,1.5v3.8h-3c-0.8,0-1.5,0.7-1.5,1.5S50.7,9.9,51.5,9.9z"/>
</g>
</svg>
