<?xml version="1.0" encoding="utf-8"?>
<!-- Generator: Adobe Illustrator 25.2.1, SVG Export Plug-In . SVG Version: 6.00 Build 0)  -->
<svg version="1.1" id="Layer_1_1_" xmlns="http://www.w3.org/2000/svg" xmlns:xlink="http://www.w3.org/1999/xlink" x="0px" y="0px"
	 viewBox="0 0 64 64" style="enable-background:new 0 0 64 64;" xml:space="preserve">
<style type="text/css">
	.st0{fill:#E03F2F;}
</style>
<g>
	<circle class="st0" cx="19.4" cy="22.8" r="0.8"/>
	<circle class="st0" cx="27.8" cy="22.8" r="0.8"/>
	<path class="st0" d="M27,28.6h-1.7c0,0.9-0.8,1.7-1.7,1.7c-0.9,0-1.7-0.8-1.7-1.7h-1.7c0,1.9,1.5,3.4,3.4,3.4S27,30.5,27,28.6z"/>
	<path class="st0" d="M54.6,39.5v15.9c0,0.5-0.4,0.8-0.8,0.8H43.7c-0.5,0-0.8-0.4-0.8-0.8v-0.8c1.4,0,2.5-1.1,2.5-2.5v-1
		c1.9-0.4,3.6-1.8,4.2-3.8c1.1-3.1,1.6-7.2,1.6-12s-0.6-8.9-1.6-12c-0.8-2.4-3.1-3.9-5.5-3.9h-5.4c-0.9,0-1.8,0.3-2.5,0.9v-4.1
		c0-2.8-1.9-5.2-4.6-5.9c-2.2-2.7-5.5-4.3-9-4.3C16.2,6,11,11.2,11,17.6v6.9c0,2.1,1.5,3.8,3.5,4.1c0.5,2.6,2,4.7,4,6.1v1.7L10,39.3
		c-2.4,0.8-4,3-4,5.6v6.4h32.7v0.8c0,1.4,1.1,2.5,2.5,2.5v0.8c0,1.4,1.1,2.5,2.5,2.5h10.1c1.4,0,2.5-1.1,2.5-2.5V39.5
		c0-0.5,0.4-0.8,0.8-0.8H58V37h-0.8C55.8,37,54.6,38.2,54.6,39.5z M48.1,23.9c0.7,2,1.5,5.7,1.5,11.4s-0.8,9.4-1.5,11.4
		c-0.6,1.7-2.2,2.8-4,2.8h-2.9v-8.4h0.8c1.4,0,2.5-1.1,2.5-2.5V32c0-1.4-1.1-2.5-2.5-2.5h-0.8v-8.4h2.9
		C45.9,21.1,47.5,22.2,48.1,23.9z M23.6,42.3l0.8,0.7v6.6h-1.7V43L23.6,42.3z M32.7,28.6c0.7-0.1,1.4-0.4,1.9-0.9
		c0.4,2,2.1,3.4,4.1,3.4h3.4c0.5,0,0.8,0.4,0.8,0.8v6.7c0,0.5-0.4,0.8-0.8,0.8h-3.4c-0.2,0-0.5,0-0.7,0.1c-0.3-0.1-0.5-0.2-0.8-0.3
		l-8.6-2.9v-1.7C30.7,33.3,32.2,31.1,32.7,28.6z M32.8,22.1c1,0.3,1.7,1.3,1.7,2.4c0,1.1-0.7,2-1.7,2.4V22.1z M28,38l1.3,0.4
		l-1.2,5.5l-3.3-2.7L28,38z M26.1,44.4l3,2.5l1.8-8l5,1.7c-0.9,0.8-1.4,1.9-1.4,3.1v3.4c0,0.9,0.3,1.8,0.9,2.5h-9.2V44.4z
		 M36.2,47.1v-3.4c0-1.4,1.1-2.5,2.5-2.5h0.8v8.4h-0.8C37.3,49.6,36.2,48.5,36.2,47.1z M38.7,21.1h0.8v8.4h-0.8
		c-1.4,0-2.5-1.1-2.5-2.5v-2.5v-0.8C36.2,22.2,37.3,21.1,38.7,21.1z M12.7,24.5c0-1.1,0.7-2,1.7-2.4v4.7
		C13.4,26.5,12.7,25.5,12.7,24.5z M14.5,20.3c-0.7,0.1-1.3,0.4-1.8,0.8v-3.5c0-5.5,4.5-9.9,9.9-9.9c3,0,5.9,1.4,7.8,3.7l0.3,0.4
		l0.3,0.1c2,0.4,3.5,2.2,3.5,4.3v5c-0.5-0.4-1.2-0.7-1.8-0.8c-0.5-2-2.3-3.4-4.5-3.4c-1,0-2,0.3-2.8,0.9l-1.8,1.4l-1.8-1.4
		C21,17.2,20,16.9,19,16.9C16.9,16.9,15.1,18.4,14.5,20.3z M16.1,27v-5.5c0-1.6,1.3-2.9,2.9-2.9c0.6,0,1.3,0.2,1.8,0.6l2.9,2.1
		l2.9-2.1c0.5-0.4,1.1-0.6,1.8-0.6c1.6,0,2.9,1.3,2.9,2.9V27c0,4.2-3.4,7.5-7.5,7.5S16.1,31.1,16.1,27z M23.6,36.2
		c1.2,0,2.3-0.2,3.4-0.6v1.1L23.6,40l-3.4-3.4v-1.1C21.3,36,22.4,36.2,23.6,36.2z M19.2,38l3.2,3.2l-3.3,2.7l-1.2-5.5L19.2,38z
		 M7.7,44.9c0-1.8,1.2-3.4,2.9-4l5.7-1.9l1.8,8l3-2.5v5.2h-6.7v-5.9h-1.7v5.9h-5V44.9z M40.4,52.1v-0.8h3.4v0.8
		c0,0.5-0.4,0.8-0.8,0.8h-1.7C40.8,53,40.4,52.6,40.4,52.1z"/>
	<rect x="53" y="33.7" class="st0" width="5" height="1.7"/>
	<rect x="53" y="30.3" class="st0" width="5" height="1.7"/>
	<path class="st0" d="M57.2,15.2c-1.4,0-2.5,1.1-2.5,2.5v8.4c0,0.5-0.4,0.8-0.8,0.8H53v1.7h0.8c1.4,0,2.5-1.1,2.5-2.5v-8.4
		c0-0.5,0.4-0.8,0.8-0.8H58v-1.7H57.2z"/>
</g>
</svg>
