<?xml version="1.0" encoding="utf-8"?>
<!-- Generator: Adobe Illustrator 25.2.1, SVG Export Plug-In . SVG Version: 6.00 Build 0)  -->
<svg version="1.1" id="Layer_1" xmlns="http://www.w3.org/2000/svg" xmlns:xlink="http://www.w3.org/1999/xlink" x="0px" y="0px"
	 viewBox="0 0 64 64" style="enable-background:new 0 0 64 64;" xml:space="preserve">
<style type="text/css">
	.st0{fill:#E03F2F;}
</style>
<g>
	<path class="st0" d="M29,46.6l-14.5,0.9v-3l13.6-1.7c0.3,0,0.5-0.3,0.4-0.6c0-0.3-0.3-0.5-0.6-0.4l-10.4,1.3v-0.6l9.6-1.5
		c0.3,0,0.5-0.3,0.4-0.6c0-0.3-0.3-0.5-0.6-0.4l-10,1.5h-4c0,0-0.1,0-0.1,0c0,0,0,0-0.1,0l-3,1c-0.2,0.1-0.3,0.3-0.3,0.5v2
		c0,0.1,0,0.1,0.1,0.2c0,0,0,0,0,0.1c0,0,0.1,0.1,0.1,0.1c0,0,0,0,0,0c0,0,0,0,0,0c0.1,0,0.2,0.1,0.3,0.1h3.5V48
		c0,0.1,0.1,0.3,0.2,0.4c0.1,0.1,0.2,0.1,0.3,0.1c0,0,0,0,0,0l2.2-0.1l0.1,3.7c0,0.3,0.2,0.5,0.5,0.5c0,0,0,0,0,0
		c0.3,0,0.5-0.2,0.5-0.5l-0.1-3.7l3.7-0.2l1,4c0.1,0.2,0.3,0.4,0.5,0.4c0,0,0.1,0,0.1,0c0.3-0.1,0.4-0.3,0.4-0.6L22,48l7-0.4
		c0.3,0,0.5-0.3,0.5-0.5C29.5,46.8,29.2,46.6,29,46.6z M14,43.5h-0.5v-1h3v0.7L14,43.5z M10.5,43.4l2-0.7v0.9l-2,0.7V43.4z"/>
	<path class="st0" d="M48,48.5c-0.3,0-0.5,0.2-0.5,0.5v3c0,0.3,0.2,0.5,0.5,0.5s0.5-0.2,0.5-0.5v-3C48.5,48.7,48.3,48.5,48,48.5z"/>
	<path class="st0" d="M56.2,38.6l-2-1c0,0,0,0,0,0c0,0-0.1,0-0.1,0c0,0-0.1,0-0.1,0c0,0,0,0,0,0c-1,0-2.1,0.1-3.1,0.3
		c-0.3,0-0.5,0.3-0.4,0.6c0,0.3,0.3,0.5,0.6,0.4c0.8-0.1,1.6-0.2,2.4-0.2V52c0,0.3,0.2,0.5,0.5,0.5s0.5-0.2,0.5-0.5V38.8l1.3,0.6
		c0.1,0,0.1,0.1,0.2,0.1c0.2,0,0.4-0.1,0.4-0.3C56.6,39,56.5,38.7,56.2,38.6z"/>
	<path class="st0" d="M42,50.5h-8c-0.3,0-0.5,0.2-0.5,0.5v1c0,0.3,0.2,0.5,0.5,0.5s0.5-0.2,0.5-0.5v-0.5h7V52c0,0.3,0.2,0.5,0.5,0.5
		s0.5-0.2,0.5-0.5v-1C42.5,50.7,42.3,50.5,42,50.5z"/>
	<path class="st0" d="M46,50.5h-2c-0.3,0-0.5,0.2-0.5,0.5v1c0,0.3,0.2,0.5,0.5,0.5s0.5-0.2,0.5-0.5v-0.5h1V52c0,0.3,0.2,0.5,0.5,0.5
		s0.5-0.2,0.5-0.5v-1C46.5,50.7,46.3,50.5,46,50.5z"/>
	<path class="st0" d="M50.5,29.9c0-0.2-1.2-5.4-12.5-5.4s-12.4,5.2-12.5,5.4c0,0.1,0,0.2,0,0.3l0.7,2c0,0,0,0,0,0l0.9,2.6
		c0,0,0,0,0,0l1.3,3.8c0,0,0,0,0,0l0.5,1.6c0,0.1,0.1,0.1,0.1,0.2c0.1,0.1,0.3,0.2,0.5,0.1c0.3-0.1,0.4-0.4,0.3-0.6l-0.4-1.1l0,0
		c0,0,0,0,0,0c0,0,0.1,0,0.1-0.1c0.1-0.1,0.2-0.1,0.4-0.2c0.1,0,0.1-0.1,0.2-0.1c0.1,0,0.2-0.1,0.4-0.1c0.1,0,0.2-0.1,0.3-0.1
		c0.1,0,0.3-0.1,0.4-0.1c0.1,0,0.2-0.1,0.3-0.1c0.2,0,0.3-0.1,0.5-0.1c0.1,0,0.3-0.1,0.4-0.1c0.2,0,0.4-0.1,0.6-0.1
		c0.1,0,0.3,0,0.4-0.1c0.2,0,0.5,0,0.8-0.1c0.1,0,0.3,0,0.4,0c0.4,0,0.8,0,1.3,0c0.4,0,0.9,0,1.4,0c0.2,0,0.3,0,0.5,0
		c0.3,0,0.6,0,1,0.1c0.2,0,0.4,0,0.6,0.1c0.3,0,0.6,0.1,0.9,0.1c0.2,0,0.4,0.1,0.7,0.1c0.3,0,0.6,0.1,0.8,0.1c0.2,0,0.5,0.1,0.7,0.1
		c0.3,0,0.5,0.1,0.8,0.1c0.2,0,0.5,0.1,0.7,0.2c0.3,0.1,0.5,0.1,0.8,0.2c0.2,0.1,0.5,0.1,0.7,0.2c0.2,0.1,0.5,0.1,0.7,0.2
		c0.2,0.1,0.5,0.1,0.7,0.2c0.2,0.1,0.3,0.1,0.5,0.2v2.9c-1.9-0.8-7.1-2.8-10.5-2.8c-4.1,0-7.2,2-7.3,2.1c-0.2,0.1-0.3,0.3-0.2,0.5
		l1,5c0,0.2,0.3,0.4,0.5,0.4h17c0.3,0,0.5-0.2,0.5-0.5v-4v-3.6c0,0,0,0,0.1,0l0.2-0.1c0,0,0,0,0,0c0.1,0,0.1-0.1,0.2-0.1
		c0,0,0,0,0,0c0.1-0.1,0.1-0.1,0.1-0.2l0.4-2.4c0,0,0,0,0,0L50,33c0,0,0,0,0,0l0.5-3C50.5,30,50.5,30,50.5,29.9z M38,25.5
		c9.7,0,11.3,4,11.5,4.5l-0.3,2c-3.5-2.6-8.7-3.6-12.2-3.6c-3.9,0-7.8,1.6-10,2.8L26.5,30C26.8,29.3,28.5,25.5,38,25.5z M46.7,38.1
		c-0.3-0.1-0.6-0.1-0.8-0.2c-0.2-0.1-0.4-0.1-0.7-0.2c-0.3-0.1-0.5-0.1-0.8-0.2c-0.2-0.1-0.5-0.1-0.7-0.2c-0.3-0.1-0.5-0.1-0.8-0.1
		c-0.3,0-0.5-0.1-0.8-0.1c-0.3,0-0.5-0.1-0.8-0.1c-0.3,0-0.5-0.1-0.8-0.1c-0.3,0-0.6-0.1-0.8-0.1c-0.2,0-0.5-0.1-0.7-0.1
		c-0.3,0-0.6,0-0.9-0.1c-0.2,0-0.4,0-0.6,0c-0.5,0-1,0-1.4,0c-0.5,0-0.9,0-1.3,0c-0.1,0-0.3,0-0.4,0c-0.3,0-0.5,0-0.8,0.1
		c-0.1,0-0.3,0-0.4,0.1c-0.2,0-0.4,0.1-0.6,0.1c-0.1,0-0.3,0-0.4,0.1c-0.2,0-0.4,0.1-0.6,0.1c-0.1,0-0.2,0.1-0.4,0.1
		c-0.2,0-0.3,0.1-0.5,0.1c-0.1,0-0.2,0.1-0.3,0.1c-0.2,0.1-0.3,0.1-0.5,0.2c-0.1,0-0.1,0-0.2,0.1c-0.2,0.1-0.4,0.2-0.6,0.2l-1-2.9
		c0,0,0.1,0,0.1-0.1c0.1,0,0.2-0.1,0.2-0.1c0.1-0.1,0.3-0.1,0.4-0.2c0.1,0,0.2-0.1,0.3-0.1c0.2-0.1,0.3-0.1,0.5-0.2
		c0.1,0,0.2-0.1,0.3-0.1c0.2,0,0.3-0.1,0.5-0.1c0.1,0,0.2-0.1,0.4-0.1c0.2,0,0.4-0.1,0.5-0.1c0.1,0,0.3-0.1,0.4-0.1
		c0.2,0,0.4-0.1,0.6-0.1c0.1,0,0.3,0,0.4-0.1c0.2,0,0.5,0,0.7-0.1c0.1,0,0.2,0,0.4,0c0.4,0,0.7,0,1.1,0c0.7,0,1.4,0,2.2,0
		c0.5,0,1.1,0.1,1.6,0.1c0.3,0,0.6,0.1,0.8,0.1c2.8,0.3,6,1.1,8.8,2.9l0,0.2l-0.2,1.5c0,0-0.1,0-0.1,0c0,0,0,0-0.1,0
		c-0.2-0.1-0.5-0.2-0.8-0.2C47.1,38.2,46.9,38.1,46.7,38.1z M48.6,35.6c0,0-0.1-0.1-0.1-0.1c-0.1-0.1-0.3-0.2-0.4-0.2
		c-0.2-0.1-0.3-0.2-0.5-0.3c-0.1-0.1-0.3-0.1-0.4-0.2c-0.2-0.1-0.3-0.2-0.5-0.2c-0.1-0.1-0.3-0.1-0.4-0.2c-0.2-0.1-0.3-0.1-0.5-0.2
		c-0.1-0.1-0.3-0.1-0.4-0.2c-0.2-0.1-0.3-0.1-0.5-0.2c-0.1,0-0.3-0.1-0.4-0.1c-0.2-0.1-0.3-0.1-0.5-0.1c-0.2,0-0.3-0.1-0.5-0.1
		c-0.2,0-0.3-0.1-0.5-0.1c-0.2,0-0.3-0.1-0.5-0.1c-0.2,0-0.3-0.1-0.5-0.1c-0.2,0-0.3-0.1-0.5-0.1c-0.2,0-0.3-0.1-0.5-0.1
		c-0.1,0-0.3-0.1-0.4-0.1c-0.2,0-0.3,0-0.5-0.1c-0.1,0-0.3,0-0.4-0.1c-0.2,0-0.3,0-0.4-0.1c-0.1,0-0.3,0-0.4,0c-0.2,0-0.3,0-0.4,0
		c-0.1,0-0.3,0-0.4,0c-0.1,0-0.3,0-0.4,0c-0.1,0-0.3,0-0.4,0c-0.2,0-0.3,0-0.5,0c-0.1,0-0.2,0-0.3,0c-0.2,0-0.4,0-0.5,0
		c-0.1,0-0.1,0-0.2,0c-0.2,0-0.5,0-0.7,0c-0.4,0-0.8,0-1.2,0c-0.1,0-0.2,0-0.4,0c-0.2,0-0.5,0-0.7,0.1c-0.1,0-0.3,0-0.4,0.1
		c-0.2,0-0.4,0.1-0.6,0.1c-0.1,0-0.3,0.1-0.4,0.1c-0.2,0-0.4,0.1-0.6,0.1c-0.1,0-0.3,0.1-0.4,0.1c-0.2,0-0.4,0.1-0.5,0.1
		c-0.1,0-0.2,0.1-0.4,0.1c-0.2,0.1-0.3,0.1-0.5,0.2c-0.1,0-0.2,0.1-0.3,0.1c-0.1,0.1-0.3,0.1-0.4,0.2c-0.1,0-0.2,0.1-0.3,0.1
		c0,0,0,0-0.1,0l-0.6-1.7c2.1-1.1,5.9-2.8,9.7-2.8c3.5,0,8.7,1,12,3.7L48.6,35.6z M47.5,46.5H31.4l-0.9-4.3c0.8-0.5,3.3-1.7,6.4-1.7
		c3.4,0,9.1,2.3,10.5,2.8V46.5z"/>
	<path class="st0" d="M22.8,27.6c0.2,0.6,0.4,1.2,0.8,1.7c0.2,0.2,0.5,0.3,0.7,0.1c0.2-0.2,0.3-0.5,0.1-0.7
		c-0.3-0.4-0.5-0.9-0.7-1.4c-0.2-0.9-0.3-1.3-0.3-1.4c0.1-0.9,4-5.5,10.5-5.5c4.8,0,12.8,0,16.6,3.9c1.8,1.8,2.1,3.5,1,5.2
		c0,0.1-0.1,0.1-0.1,0.2c-0.2,0.2-0.1,0.5,0.1,0.7c0.1,0.1,0.2,0.1,0.3,0.1c0.1,0,0.3-0.1,0.4-0.2c0.1-0.1,0.1-0.1,0.2-0.2
		c0.8-1.2,1.7-3.6-1.1-6.4c-4.1-4.1-12.4-4.1-17.4-4.1c-7.2,0-11.5,5.2-11.5,6.5C22.5,26.3,22.6,26.9,22.8,27.6z"/>
	<path class="st0" d="M51.5,33c0,0.3,0.2,0.5,0.5,0.5h4c0.3,0,0.5-0.2,0.5-0.5s-0.2-0.5-0.5-0.5h-4C51.7,32.5,51.5,32.7,51.5,33z"/>
	<path class="st0" d="M11.5,16v-0.5c0-0.6,0.4-1,1-1s1,0.4,1,1V16c0,0.3,0.2,0.5,0.5,0.5s0.5-0.2,0.5-0.5v-1c0-1.4,1.1-2.5,2.5-2.5
		s2.5,1.1,2.5,2.5v1c0,0.3,0.2,0.5,0.5,0.5h3c0.3,0,0.5-0.2,0.5-0.5s-0.2-0.5-0.5-0.5h-2.5V15c0-1.9-1.6-3.5-3.5-3.5
		c-1.5,0-2.9,1-3.3,2.4c-0.3-0.2-0.7-0.4-1.2-0.4c-1.1,0-2,0.9-2,2H8c-0.3,0-0.5,0.2-0.5,0.5s0.2,0.5,0.5,0.5h3
		C11.3,16.5,11.5,16.3,11.5,16z"/>
	<path class="st0" d="M50,12.5h4c0.3,0,0.5-0.2,0.5-0.5s-0.2-0.5-0.5-0.5h-4c-0.3,0-0.5,0.2-0.5,0.5S49.7,12.5,50,12.5z"/>
	<path class="st0" d="M14,29.5h-3c-0.3,0-0.5,0.2-0.5,0.5s0.2,0.5,0.5,0.5h3c0.3,0,0.5-0.2,0.5-0.5S14.3,29.5,14,29.5z"/>
</g>
</svg>
