<?xml version="1.0" encoding="utf-8"?>
<!-- Generator: Adobe Illustrator 25.2.1, SVG Export Plug-In . SVG Version: 6.00 Build 0)  -->
<svg version="1.1" id="Layer_1" xmlns="http://www.w3.org/2000/svg" xmlns:xlink="http://www.w3.org/1999/xlink" x="0px" y="0px"
	 viewBox="0 0 64 64" style="enable-background:new 0 0 64 64;" xml:space="preserve">
<style type="text/css">
	.st0{fill:#E03F2F;}
</style>
<g>
	<path class="st0" d="M17.5,25.5c0-0.3-0.2-0.5-0.5-0.5h-5c-0.3,0-0.5,0.2-0.5,0.5S11.7,26,12,26h5C17.3,26,17.5,25.8,17.5,25.5z"/>
	<path class="st0" d="M28,12.9c0.2,0.1,0.5,0.1,0.7-0.2C29,12.3,29.5,12,30,12c0.7,0,1.2,0.4,1.4,1H31c-0.3,0-0.5,0.2-0.5,0.5
		S30.7,14,31,14h2c0.3,0,0.5-0.2,0.5-0.5S33.3,13,33,13h-0.4c0.2-0.6,0.8-1,1.4-1c0.5,0,1,0.3,1.3,0.8c0.1,0.2,0.4,0.3,0.7,0.2
		c0.2-0.1,0.3-0.4,0.2-0.7C35.7,11.5,34.9,11,34,11c-0.8,0-1.5,0.4-2,1c-0.5-0.6-1.2-1-2-1c-0.9,0-1.7,0.5-2.2,1.2
		C27.7,12.5,27.8,12.8,28,12.9z"/>
	<path class="st0" d="M48.5,44.3C48.4,44.3,48.4,44.2,48.5,44.3c-0.1-0.1-0.1-0.1-0.1-0.2s0,0-0.1,0c0,0-0.1,0-0.1-0.1
		c-0.1,0-0.1,0-0.2,0h-2.5v-7.5c0-0.3-0.2-0.5-0.5-0.5h-1.5v-7.5c0-0.3-0.2-0.5-0.5-0.5h-2.5v-6.5v-2c0-0.3-0.2-0.5-0.5-0.5h-0.5
		v-0.5c0-0.3-0.2-0.5-0.5-0.5s-0.5,0.2-0.5,0.5V19H33c-0.3,0-0.5,0.2-0.5,0.5S32.7,20,33,20h6.5v1H38H26h-1.5v-1H31
		c0.3,0,0.5-0.2,0.5-0.5S31.3,19,31,19h-5.5v-0.5c0-0.3-0.2-0.5-0.5-0.5s-0.5,0.2-0.5,0.5V19H24c-0.3,0-0.5,0.2-0.5,0.5v2V28H21
		c-0.3,0-0.5,0.2-0.5,0.5V36H19c-0.3,0-0.5,0.2-0.5,0.5V44H16c0,0-0.1,0-0.1,0c0,0-0.1,0-0.1,0c-0.1,0-0.1,0.1-0.2,0.1c0,0,0,0,0,0
		c0,0,0,0,0,0c0,0-0.1,0.1-0.1,0.1c0,0.1,0,0.1,0,0.2v8c0,0.3,0.2,0.5,0.5,0.5s0.5-0.2,0.5-0.5v-6.8l1.1,1.1
		c0.1,0.1,0.2,0.1,0.4,0.1h2.8l0.7,0.7V49H19c-0.3,0-0.5,0.2-0.5,0.5v3c0,0.3,0.2,0.5,0.5,0.5s0.5-0.2,0.5-0.5V50H22
		c0.3,0,0.5-0.2,0.5-0.5V48H25l-0.5,4.4c0,0.3,0.2,0.5,0.4,0.6c0.3,0,0.5-0.2,0.6-0.4L28.4,27h1l-2.9,25.4c0,0.3,0.2,0.5,0.4,0.6
		c0,0,0,0,0.1,0c0,0,0,0,0.1,0c0,0,0.1,0,0.1,0c0,0,0,0,0,0c0,0,0.1,0,0.1-0.1c0,0,0,0,0,0c0,0,0.1-0.1,0.1-0.1c0-0.1,0-0.1,0.1-0.2
		l0.6-5.6h7.7l0.3,3l0.3,2.6c0,0,0,0,0,0c0,0.1,0,0.1,0.1,0.2c0,0,0,0,0,0.1c0,0,0,0.1,0.1,0.1c0,0,0.1,0,0.1,0c0,0,0,0,0.1,0
		c0,0,0.1,0,0.1,0c0,0,0,0,0.1,0c0,0,0,0,0.1,0c0.3,0,0.5-0.3,0.4-0.6L34.6,27h1l3,25.6c0,0.3,0.2,0.4,0.5,0.4c0,0,0,0,0.1,0
		c0.3,0,0.5-0.3,0.4-0.6L39,48h2.5v1.5c0,0.3,0.2,0.5,0.5,0.5h2.5v2.5c0,0.3,0.2,0.5,0.5,0.5s0.5-0.2,0.5-0.5v-3
		c0-0.3-0.2-0.5-0.5-0.5h-2.5v-1.3l0.7-0.7H46c0.1,0,0.3-0.1,0.4-0.1l1.1-1.1v6.8c0,0.3,0.2,0.5,0.5,0.5s0.5-0.2,0.5-0.5v-8
		C48.5,44.4,48.5,44.4,48.5,44.3z M44.5,42h-1v-2.5c0-0.3-0.2-0.5-0.5-0.5h-1.5v-2h3V42z M39,36c-0.3,0-0.5,0.2-0.5,0.5
		S38.7,37,39,37h1.5v1H39c-0.3,0-0.5,0.2-0.5,0.5S38.7,39,39,39h1.5v0.5v1.8l-2.1,2.1l-1-8.3H39c0.3,0,0.5-0.2,0.5-0.5V33h3v3H39z
		 M38,29h0.5v1.5c0,0.3,0.2,0.5,0.5,0.5h1.5v1H39c-0.3,0-0.5,0.2-0.5,0.5V34h-1.1l-0.6-5H38z M42.5,32h-1v-1.5
		c0-0.3-0.2-0.5-0.5-0.5h-1.5v-1H40h2.5V32z M39.5,28h-1v-6h1V28z M26.6,34h-1.1v-1.5c0-0.3-0.2-0.5-0.5-0.5h-1.5v-1H25
		c0.3,0,0.5-0.2,0.5-0.5V29H26h1.2L26.6,34z M24.5,22h1v6h-1V22z M24,29h0.5v1H23c-0.3,0-0.5,0.2-0.5,0.5V32h-1v-3H24z M21.5,33h3
		v1.5c0,0.3,0.2,0.5,0.5,0.5h1.5l-1,8.3l-2.1-2.1v-1.8V39H25c0.3,0,0.5-0.2,0.5-0.5S25.3,38,25,38h-1.5v-1H25c0.3,0,0.5-0.2,0.5-0.5
		S25.3,36,25,36h-3.5V33z M22.5,37v2H21c-0.3,0-0.5,0.2-0.5,0.5V42h-1v-5H22.5z M22.2,47l-0.9-0.9C21.3,46.1,21.1,46,21,46h-2.8
		l-1-1H23c0.3,0,0.5-0.2,0.5-0.5S23.3,44,23,44h-3.5v-1H21c0.3,0,0.5-0.2,0.5-0.5V40h1v1.5c0,0.1,0.1,0.3,0.1,0.4l2.8,2.8L25.1,47
		H22.2z M27.3,28h-0.8v-1h0.9L27.3,28z M31.5,24h1v2h-1V24z M31,27h2h0.6l0.3,3h-3.8l0.3-3H31z M29.5,35h5l0.3,3h-5.6L29.5,35z
		 M34.4,34h-4.7l0.3-3h4L34.4,34z M29.1,39h5.9l0.3,3h-6.6L29.1,39z M28.3,46l0.3-3h6.8l0.3,3H28.3z M35.5,26v-0.5
		c0-0.3-0.2-0.5-0.5-0.5s-0.5,0.2-0.5,0.5V26H34h-0.5v-2H35c0.3,0,0.5-0.2,0.5-0.5S35.3,23,35,23h-2h-2h-2c-0.3,0-0.5,0.2-0.5,0.5
		S28.7,24,29,24h1.5v2H30h-0.5v-0.5c0-0.3-0.2-0.5-0.5-0.5s-0.5,0.2-0.5,0.5V26H28h-1.5v-4h11v4H36H35.5z M37.5,27v1h-0.8l-0.1-1
		H37.5z M45.8,46H43c-0.1,0-0.3,0.1-0.4,0.1L41.8,47h-2.9l-0.3-2.4l2.8-2.8c0.1-0.1,0.1-0.2,0.1-0.4V40h1v2.5c0,0.3,0.2,0.5,0.5,0.5
		h1.5v1H41c-0.3,0-0.5,0.2-0.5,0.5S40.7,45,41,45h5.8L45.8,46z"/>
	<path class="st0" d="M53,35h-4c-0.3,0-0.5,0.2-0.5,0.5S48.7,36,49,36h4c0.3,0,0.5-0.2,0.5-0.5S53.3,35,53,35z"/>
</g>
</svg>
