<?xml version="1.0" encoding="utf-8"?>
<!-- Generator: Adobe Illustrator 25.2.1, SVG Export Plug-In . SVG Version: 6.00 Build 0)  -->
<svg version="1.1" id="Layer_1" xmlns="http://www.w3.org/2000/svg" xmlns:xlink="http://www.w3.org/1999/xlink" x="0px" y="0px"
	 viewBox="0 0 60 60" style="enable-background:new 0 0 60 60;" xml:space="preserve">
<style type="text/css">
	.st0{fill:#E03F2F;}
</style>
<g>
	<path class="st0" d="M19.5,21.5L19.5,21.5c0.7,0,1.3-0.6,1.3-1.2s-0.6-1.2-1.2-1.2h0c-0.7,0-1.2,0.6-1.2,1.2S18.9,21.5,19.5,21.5z"
		/>
	<path class="st0" d="M19.5,26.3L19.5,26.3c0.7,0,1.3-0.6,1.3-1.2c0-0.7-0.6-1.2-1.2-1.2h0c-0.7,0-1.2,0.6-1.2,1.2
		C18.3,25.8,18.8,26.3,19.5,26.3z"/>
	<path class="st0" d="M30,21.5L30,21.5c0.7,0,1.3-0.6,1.3-1.2s-0.6-1.2-1.2-1.2h0c-0.7,0-1.2,0.6-1.2,1.2S29.3,21.5,30,21.5z"/>
	<path class="st0" d="M30,26.3L30,26.3c0.7,0,1.3-0.6,1.3-1.2c0-0.7-0.6-1.2-1.2-1.2h0c-0.7,0-1.2,0.6-1.2,1.2
		C28.7,25.8,29.3,26.3,30,26.3z"/>
	<path class="st0" d="M40.7,21.5L40.7,21.5c0.7,0,1.3-0.6,1.3-1.2s-0.6-1.2-1.2-1.2h0c-0.7,0-1.2,0.6-1.2,1.2S40,21.5,40.7,21.5z"/>
	<path class="st0" d="M40.7,26.3L40.7,26.3c0.7,0,1.3-0.6,1.3-1.2c0-0.7-0.6-1.2-1.2-1.2h0c-0.7,0-1.2,0.6-1.2,1.2
		C39.5,25.8,40,26.3,40.7,26.3z"/>
	<path class="st0" d="M52,22.8h-1V18c0-1.6-1.3-2.8-2.8-2.8H11.8C10.2,15.1,9,16.4,9,18v4.8H8c-1.6,0-2.8,1.3-2.8,2.8V42
		c0,1.6,1.3,2.8,2.8,2.8h44c1.6,0,2.8-1.3,2.8-2.8V25.6C54.9,24.1,53.6,22.8,52,22.8z M11.4,18c0-0.2,0.2-0.4,0.4-0.4h36.4
		c0.2,0,0.4,0.2,0.4,0.4v4.8h-1c-1.6,0-2.8,1.3-2.8,2.8v0v7H15.3v-7c0-1.6-1.3-2.8-2.8-2.8h0h-1V18z M52.4,42c0,0.2-0.2,0.4-0.4,0.4
		H8c-0.2,0-0.4-0.2-0.4-0.4V25.6c0-0.2,0.2-0.4,0.4-0.4h2.2c0,0,0,0,0,0h2.2c0.2,0,0.4,0.2,0.4,0.4v8.2v0c0,0.7,0.6,1.2,1.2,1.2h32
		c0.6,0,1.2-0.5,1.2-1.1c0,0,0-0.1,0-0.1v-8.2c0-0.1,0-0.2,0.1-0.3s0.2-0.1,0.3-0.1h2.2H52c0.2,0,0.4,0.2,0.4,0.4V42z"/>
</g>
</svg>
