<svg xmlns="http://www.w3.org/2000/svg" width="18" height="18" viewBox="0 0 18 18"><g><g><g><g><g><path fill="#fff" d="M9 16.606c-4.193 0-7.606-3.412-7.606-7.606S4.807 1.394 9 1.394 16.606 4.806 16.606 9 13.194 16.606 9 16.606zM9 0C4.037 0 0 4.037 0 9s4.037 9 9 9 9-4.038 9-9-4.037-9-9-9z"/></g></g></g><g><g><g><path fill="#fff" d="M12.486 8.24H9.697V5.452a.697.697 0 1 0-1.394 0V8.24H5.514a.697.697 0 1 0 0 1.394h2.789v2.789a.697.697 0 1 0 1.394 0V9.634h2.789a.697.697 0 1 0 0-1.394z"/></g></g></g></g></g></svg>