<svg xmlns="http://www.w3.org/2000/svg" width="122" height="30" viewBox="0 0 122 30"><g><g><g><path fill="#ffd400" d="M9.277 12.324a6.887 6.887 0 0 1 6.891 6.89 6.887 6.887 0 1 1-13.773 0c0-3.804 3.085-6.89 6.882-6.89z"/></g><g><path fill="#ffd400" d="M38.174 13.36c3.797 0 6.89 3.078 6.89 6.882 0 3.805-3.093 6.883-6.89 6.883a6.878 6.878 0 0 1-6.883-6.883 6.878 6.878 0 0 1 6.883-6.883z"/></g><g><path fill="#ffd400" d="M63.133 13.428c3.797 0 6.875 3.093 6.875 6.89a6.877 6.877 0 0 1-6.875 6.883 6.88 6.88 0 0 1-6.89-6.883 6.892 6.892 0 0 1 6.89-6.89z"/></g><g><path fill="#066" d="M101.79 27.336c0 1.14-.923 2.07-2.071 2.07-1.14 0-2.07-.93-2.07-2.07v-17.04c0-1.148.93-2.07 2.07-2.07 1.148 0 2.07.922 2.07 2.07zm-21.5 0c0 1.14-.93 2.07-2.071 2.07-1.149 0-2.07-.93-2.07-2.07V2.094c0-1.149.921-2.086 2.07-2.086 1.14 0 2.07.937 2.07 2.086v13.922l9.82-7.282a2.054 2.054 0 0 1 2.891.43c.68.906.477 2.203-.43 2.89l-8.422 6.235 8.547 7.5c.86.758.953 2.063.203 2.922a2.068 2.068 0 0 1-2.921.195l-9.688-8.508zM66.413 13.914a7.027 7.027 0 0 0-9.898 0 7.027 7.027 0 0 0 0 9.899 7.027 7.027 0 0 0 9.898 0 7.027 7.027 0 0 0 0-9.898zM61.47 7.727c6.14 0 11.133 4.992 11.133 11.132C72.602 25.008 67.609 30 61.469 30c-6.149 0-11.133-4.992-11.133-11.14 0-6.141 4.984-11.133 11.133-11.133zm-19.914 6.187a6.967 6.967 0 0 0-4.938-2.039 6.972 6.972 0 0 0-6.992 6.984 6.972 6.972 0 0 0 6.992 6.992c1.93 0 3.68-.78 4.938-2.038a7.012 7.012 0 0 0 2.054-4.954c0-1.921-.789-3.671-2.054-4.945zm-4.938-6.187c6.14 0 11.133 4.992 11.133 11.132C47.75 25.008 42.758 30 36.617 30c-6.156 0-11.133-4.992-11.133-11.14 0-6.141 4.977-11.133 11.133-11.133zm-20.015 6.187a7.013 7.013 0 0 0-9.89 0 7.027 7.027 0 0 0-.001 9.899 7.013 7.013 0 0 0 9.89 0 7.005 7.005 0 0 0 0-9.899zm-4.946-6.187c6.149 0 11.14 4.992 11.14 11.132 0 6.149-4.991 11.141-11.14 11.141C5.508 30 .523 25.008.523 18.86c0-6.141 4.985-11.133 11.133-11.133zm-7.015.742c0 1.14-.93 2.07-2.07 2.07C1.43 10.54.5 9.61.5 8.47V2.586c0-1.14.93-2.063 2.07-2.063 1.141 0 2.07.922 2.07 2.063zm102.43 3.96a2.06 2.06 0 0 1-2.063-2.062c0-1.148.922-2.078 2.062-2.078h1.375V2.07c0-1.14.922-2.07 2.063-2.07 1.148 0 2.078.93 2.078 2.07v6.22h4.375c1.14 0 2.062.929 2.062 2.077a2.06 2.06 0 0 1-2.062 2.063h-4.375v6.008c0 1.96.672 3.71 1.828 4.953 1.07 1.148 2.594 1.851 4.375 1.851h1.063c1.14 0 2.062.93 2.062 2.086 0 1.14-.922 2.07-2.062 2.07h-1.063c-3 0-5.562-1.218-7.398-3.195-1.868-1.992-2.946-4.742-2.946-7.765V12.43z"/></g><g><path fill="#ffd400" d="M97.648 2.186c0-1.157.922-2.079 2.063-2.079 1.156 0 2.078.922 2.078 2.079V3.45a2.07 2.07 0 0 1-4.14 0z"/></g><g><path fill="#066" d="M7.021 21.13a1.149 1.149 0 0 1 0-2.296l4.22.008v-4.07c0-.633.507-1.149 1.155-1.149.633 0 1.141.516 1.141 1.148v5.22c0 .632-.516 1.148-1.14 1.148z"/></g><g><path fill="#ffd400" d="M87.053 18.664l5.703-4.289v8.578z"/></g><g><path fill="#ffd400" d="M110.395 28.463h-6.516v-11.11z"/></g></g></g></svg>