<svg xmlns="http://www.w3.org/2000/svg" width="53" height="54" viewBox="0 0 53 54"><g><g><g><path fill="#d9ac80" d="M26.474.16l12.96 6.669 13.015 6.616-13.014 6.67-12.96 6.67-12.96-6.67L.5 13.444l13.014-6.616z"/></g><g><path fill="#d7baa4" d="M42.688 24.507v-6.02l-6.507 3.308v6.02l3.579-4.393z"/></g><g><path fill="#a67e4f" d="M26.474 26.784V53.41L52.45 40.124v-26.68l-9.76 5.044-.218.108v5.857l-2.711-1.03-3.58 4.392v-6.02z"/></g><g><path fill="#926e43" d="M26.474 53.41V26.783l-12.96-6.67L.5 13.444v26.68z"/></g><g><path fill="#f2d3ba" d="M10.26 8.456l25.92 13.34 6.291-3.2.217-.108-25.92-13.34-3.254 1.681z"/></g></g></g></svg>