<svg xmlns="http://www.w3.org/2000/svg" width="18" height="18" viewBox="0 0 18 18"><g><g><g><path fill="#066" d="M11.215 11.145h1.652l.001 1.652h-1.653zm-1.406 1.652c0 .775.63 1.406 1.406 1.406h1.652c.776 0 1.406-.63 1.406-1.406v-1.652c0-.776-.63-1.407-1.406-1.407h-1.652c-.776 0-1.406.631-1.406 1.407z"/></g><g><path fill="#066" d="M12.867 7.383a.703.703 0 1 1 1.406 0 .703.703 0 0 1-1.406 0z"/></g><g><path fill="#066" d="M9.809 7.383a.703.703 0 1 1 1.406 0 .703.703 0 0 1-1.406 0z"/></g><g><path fill="#066" d="M17.297 12.375a.703.703 0 0 0 .703-.703V4.219a2.816 2.816 0 0 0-2.812-2.813h-.915V.703a.703.703 0 1 0-1.406 0v.703H9.668V.703a.703.703 0 1 0-1.406 0v.703H5.098V.703a.703.703 0 1 0-1.407 0v.703h-.878A2.816 2.816 0 0 0 0 4.22v10.969A2.816 2.816 0 0 0 2.813 18h12.375A2.816 2.816 0 0 0 18 15.188a.703.703 0 1 0-1.406 0c0 .775-.631 1.406-1.406 1.406H2.813c-.776 0-1.407-.631-1.407-1.406V4.218c0-.775.631-1.405 1.407-1.405h.878v.703a.703.703 0 1 0 1.407 0v-.703h3.164v.703a.703.703 0 1 0 1.406 0v-.703h3.2v.703a.703.703 0 1 0 1.406 0v-.703h.914c.775 0 1.406.63 1.406 1.406v7.453c0 .388.315.703.703.703z"/></g><g><path fill="#066" d="M3.691 13.5a.703.703 0 1 1 1.407 0 .703.703 0 0 1-1.407 0z"/></g><g><path fill="#066" d="M3.691 7.383a.703.703 0 1 1 1.407 0 .703.703 0 0 1-1.407 0z"/></g><g><path fill="#066" d="M3.691 10.441a.703.703 0 1 1 1.407 0 .703.703 0 0 1-1.407 0z"/></g><g><path fill="#066" d="M6.75 10.441a.703.703 0 1 1 1.406 0 .703.703 0 0 1-1.406 0z"/></g><g><path fill="#066" d="M6.75 7.383a.703.703 0 1 1 1.406 0 .703.703 0 0 1-1.406 0z"/></g><g><path fill="#066" d="M6.75 13.5a.703.703 0 1 1 1.406 0 .703.703 0 0 1-1.406 0z"/></g></g></g></svg>