<svg xmlns="http://www.w3.org/2000/svg" width="18" height="18" viewBox="0 0 18 18"><g><g><g><path fill="#066" d="M16.106 4.736a.75.75 0 0 0-.348 1.002A7.424 7.424 0 0 1 16.5 9c0 4.135-3.365 7.5-7.5 7.5S1.5 13.135 1.5 9 4.865 1.5 9 1.5a7.41 7.41 0 0 1 4.656 1.618.75.75 0 1 0 .933-1.174A9.015 9.015 0 0 0 9 0C4.038 0 0 4.038 0 9s4.038 9 9 9 9-4.038 9-9c0-1.375-.3-2.693-.892-3.915a.75.75 0 0 0-1.002-.349z"/></g><g><path fill="#066" d="M9 3a.75.75 0 0 0-.75.75V9c0 .414.336.75.75.75h3.75a.75.75 0 0 0 0-1.5h-3v-4.5A.75.75 0 0 0 9 3z"/></g></g></g></svg>