<svg xmlns="http://www.w3.org/2000/svg" width="14" height="17" viewBox="0 0 14 17"><g><g><path fill="#fff" d="M14 12.408v-9.81A2.602 2.602 0 0 0 11.401 0h-7.21a.65.65 0 1 0 0 1.3h7.21a1.3 1.3 0 0 1 1.3 1.299v9.81a.65.65 0 1 0 1.299 0zM8.803 3.93a1.3 1.3 0 0 1 1.3 1.3v8.802a1.3 1.3 0 0 1-1.3 1.3H2.599a1.3 1.3 0 0 1-1.3-1.3V5.23a1.3 1.3 0 0 1 1.3-1.3zM11.4 14.032V5.23A2.602 2.602 0 0 0 8.803 2.63H2.599A2.602 2.602 0 0 0 0 5.23v8.802a2.602 2.602 0 0 0 2.599 2.6h6.204a2.602 2.602 0 0 0 2.598-2.6z"/></g></g></svg>