<svg xmlns="http://www.w3.org/2000/svg" width="220" height="100" viewBox="0 0 220 100">
  <g id="Сгруппировать_6858" data-name="Сгруппировать 6858" transform="translate(-406 -224)">
    <rect id="Прямоугольник_665" data-name="Прямоугольник 665" width="66" height="12" rx="2" transform="translate(406 224)" fill="#ffd400"/>
    <rect id="Прямоугольник_666" data-name="Прямоугольник 666" width="66" height="12" rx="2" transform="translate(406 238)" fill="#b4d3d3"/>
    <rect id="Прямоугольник_667" data-name="Прямоугольник 667" width="66" height="12" rx="2" transform="translate(406 252)" fill="#b4d3d3"/>
    <rect id="Прямоугольник_668" data-name="Прямоугольник 668" width="66" height="12" rx="2" transform="translate(406 266)" fill="#b4d3d3"/>
    <rect id="Прямоугольник_669" data-name="Прямоугольник 669" width="66" height="12" rx="2" transform="translate(406 280)" fill="#b4d3d3"/>
    <rect id="Прямоугольник_670" data-name="Прямоугольник 670" width="66" height="12" rx="2" transform="translate(406 294)" fill="#b4d3d3"/>
    <rect id="Прямоугольник_671" data-name="Прямоугольник 671" width="66" height="12" rx="2" transform="translate(406 308)" fill="#b4d3d3"/>
    <rect id="Прямоугольник_673" data-name="Прямоугольник 673" width="148" height="14" rx="2" transform="translate(478 224)" fill="#066"/>
    <rect id="Прямоугольник_674" data-name="Прямоугольник 674" width="20" height="11" rx="2" transform="translate(478 249)" fill="#b4d3d3"/>
    <rect id="Прямоугольник_674-2" data-name="Прямоугольник 674" width="20" height="11" rx="2" transform="translate(499 249)" fill="#b4d3d3"/>
    <rect id="Прямоугольник_674-3" data-name="Прямоугольник 674" width="20" height="11" rx="2" transform="translate(520 249)" fill="#b4d3d3"/>
    <rect id="Прямоугольник_674-4" data-name="Прямоугольник 674" width="20" height="11" rx="2" transform="translate(541 249)" fill="#b4d3d3"/>
    <rect id="Прямоугольник_674-5" data-name="Прямоугольник 674" width="21" height="11" rx="2" transform="translate(562 249)" fill="#b4d3d3"/>
    <rect id="Прямоугольник_674-6" data-name="Прямоугольник 674" width="21" height="11" rx="2" transform="translate(584 249)" fill="#b4d3d3"/>
    <rect id="Прямоугольник_674-7" data-name="Прямоугольник 674" width="20" height="11" rx="2" transform="translate(606 249)" fill="#b4d3d3"/>
    <rect id="Прямоугольник_674-8" data-name="Прямоугольник 674" width="20" height="11" rx="2" transform="translate(478 262)" fill="#b4d3d3"/>
    <rect id="Прямоугольник_674-9" data-name="Прямоугольник 674" width="20" height="11" rx="2" transform="translate(499 262)" fill="#b4d3d3"/>
    <rect id="Прямоугольник_674-10" data-name="Прямоугольник 674" width="20" height="11" rx="2" transform="translate(520 262)" fill="#b4d3d3"/>
    <rect id="Прямоугольник_674-11" data-name="Прямоугольник 674" width="20" height="11" rx="2" transform="translate(541 262)" fill="#b4d3d3"/>
    <rect id="Прямоугольник_674-12" data-name="Прямоугольник 674" width="21" height="11" rx="2" transform="translate(562 262)" fill="#b4d3d3"/>
    <rect id="Прямоугольник_674-13" data-name="Прямоугольник 674" width="21" height="11" rx="2" transform="translate(584 262)" fill="#b4d3d3"/>
    <rect id="Прямоугольник_674-14" data-name="Прямоугольник 674" width="20" height="11" rx="2" transform="translate(606 262)" fill="#b4d3d3"/>
    <rect id="Прямоугольник_674-15" data-name="Прямоугольник 674" width="20" height="12" rx="2" transform="translate(478 274)" fill="#b4d3d3"/>
    <rect id="Прямоугольник_674-16" data-name="Прямоугольник 674" width="20" height="12" rx="2" transform="translate(499 274)" fill="#b4d3d3"/>
    <rect id="Прямоугольник_674-17" data-name="Прямоугольник 674" width="20" height="12" rx="2" transform="translate(520 274)" fill="#b4d3d3"/>
    <rect id="Прямоугольник_674-18" data-name="Прямоугольник 674" width="20" height="12" rx="2" transform="translate(541 274)" fill="#b4d3d3"/>
    <rect id="Прямоугольник_674-19" data-name="Прямоугольник 674" width="21" height="12" rx="2" transform="translate(562 274)" fill="#b4d3d3"/>
    <rect id="Прямоугольник_674-20" data-name="Прямоугольник 674" width="21" height="12" rx="2" transform="translate(584 274)" fill="#b4d3d3"/>
    <rect id="Прямоугольник_674-21" data-name="Прямоугольник 674" width="20" height="12" rx="2" transform="translate(606 274)" fill="#b4d3d3"/>
    <rect id="Прямоугольник_674-22" data-name="Прямоугольник 674" width="20" height="12" rx="2" transform="translate(478 287)" fill="#b4d3d3"/>
    <rect id="Прямоугольник_674-23" data-name="Прямоугольник 674" width="20" height="12" rx="2" transform="translate(499 287)" fill="#b4d3d3"/>
    <rect id="Прямоугольник_674-24" data-name="Прямоугольник 674" width="20" height="12" rx="2" transform="translate(520 287)" fill="#b4d3d3"/>
    <rect id="Прямоугольник_674-25" data-name="Прямоугольник 674" width="20" height="12" rx="2" transform="translate(541 287)" fill="#b4d3d3"/>
    <rect id="Прямоугольник_674-26" data-name="Прямоугольник 674" width="21" height="12" rx="2" transform="translate(562 287)" fill="#b4d3d3"/>
    <rect id="Прямоугольник_674-27" data-name="Прямоугольник 674" width="21" height="12" rx="2" transform="translate(584 287)" fill="#b4d3d3"/>
    <rect id="Прямоугольник_674-28" data-name="Прямоугольник 674" width="20" height="12" rx="2" transform="translate(606 287)" fill="#b4d3d3"/>
    <rect id="Прямоугольник_674-29" data-name="Прямоугольник 674" width="20" height="12" rx="2" transform="translate(478 300)" fill="#b4d3d3"/>
    <rect id="Прямоугольник_674-30" data-name="Прямоугольник 674" width="20" height="12" rx="2" transform="translate(499 300)" fill="#b4d3d3"/>
    <rect id="Прямоугольник_674-31" data-name="Прямоугольник 674" width="20" height="12" rx="2" transform="translate(520 300)" fill="#b4d3d3"/>
    <rect id="Прямоугольник_674-32" data-name="Прямоугольник 674" width="20" height="12" rx="2" transform="translate(541 300)" fill="#b4d3d3"/>
    <rect id="Прямоугольник_674-33" data-name="Прямоугольник 674" width="21" height="12" rx="2" transform="translate(562 300)" fill="#b4d3d3"/>
    <rect id="Прямоугольник_674-34" data-name="Прямоугольник 674" width="21" height="12" rx="2" transform="translate(584 300)" fill="#b4d3d3"/>
    <rect id="Прямоугольник_674-35" data-name="Прямоугольник 674" width="20" height="12" rx="2" transform="translate(606 300)" fill="#b4d3d3"/>
    <rect id="Прямоугольник_674-36" data-name="Прямоугольник 674" width="20" height="11" rx="2" transform="translate(606 313)" fill="#f0f8f8"/>
    <g id="Сгруппировать_6844" data-name="Сгруппировать 6844" transform="translate(411.815 227.101)">
      <rect id="Прямоугольник_675" data-name="Прямоугольник 675" width="33" height="2" rx="1" transform="translate(0.185 -0.101)" fill="#066"/>
      <rect id="Прямоугольник_676" data-name="Прямоугольник 676" width="14" height="2" rx="1" transform="translate(0.185 3.899)" fill="#066"/>
    </g>
    <g id="Сгруппировать_6845" data-name="Сгруппировать 6845" transform="translate(411.815 241.282)" opacity="0.3">
      <rect id="Прямоугольник_675-2" data-name="Прямоугольник 675" width="38" height="2" rx="1" transform="translate(0.185 -0.282)"/>
      <rect id="Прямоугольник_676-2" data-name="Прямоугольник 676" width="14" height="2" rx="1" transform="translate(0.185 3.718)"/>
    </g>
    <g id="Сгруппировать_6846" data-name="Сгруппировать 6846" transform="translate(411.815 255.462)" opacity="0.3">
      <rect id="Прямоугольник_675-3" data-name="Прямоугольник 675" width="18" height="2" rx="1" transform="translate(0.185 -0.462)"/>
      <rect id="Прямоугольник_676-3" data-name="Прямоугольник 676" width="14" height="2" rx="1" transform="translate(0.185 3.538)"/>
    </g>
    <g id="Сгруппировать_6847" data-name="Сгруппировать 6847" transform="translate(411.815 268.642)" opacity="0.3">
      <rect id="Прямоугольник_675-4" data-name="Прямоугольник 675" width="26" height="2" rx="1" transform="translate(0.185 0.357)"/>
      <rect id="Прямоугольник_676-4" data-name="Прямоугольник 676" width="14" height="2" rx="1" transform="translate(0.185 4.357)"/>
    </g>
    <g id="Сгруппировать_6848" data-name="Сгруппировать 6848" transform="translate(411.815 282.823)" opacity="0.3">
      <rect id="Прямоугольник_675-5" data-name="Прямоугольник 675" width="26" height="2" rx="1" transform="translate(0.185 0.177)"/>
      <rect id="Прямоугольник_676-5" data-name="Прямоугольник 676" width="14" height="2" rx="1" transform="translate(0.185 4.177)"/>
    </g>
    <g id="Сгруппировать_6849" data-name="Сгруппировать 6849" transform="translate(411.815 297.003)" opacity="0.3">
      <rect id="Прямоугольник_675-6" data-name="Прямоугольник 675" width="29" height="2" rx="1" transform="translate(0.185 -0.003)"/>
      <rect id="Прямоугольник_676-6" data-name="Прямоугольник 676" width="14" height="2" rx="1" transform="translate(0.185 3.997)"/>
    </g>
    <g id="Сгруппировать_6850" data-name="Сгруппировать 6850" transform="translate(411.815 311.184)" opacity="0.3">
      <rect id="Прямоугольник_675-7" data-name="Прямоугольник 675" width="29" height="2" rx="1" transform="translate(0.185 -0.184)"/>
      <rect id="Прямоугольник_676-7" data-name="Прямоугольник 676" width="14" height="2" rx="1" transform="translate(0.185 3.816)"/>
    </g>
    <rect id="Прямоугольник_679" data-name="Прямоугольник 679" width="23" height="14" transform="translate(511 224)" fill="#ffd400"/>
    <g id="Сгруппировать_6852" data-name="Сгруппировать 6852" transform="translate(486.633 228.652)">
      <rect id="Прямоугольник_677" data-name="Прямоугольник 677" width="14" height="2" rx="1" transform="translate(0.367 0.348)" fill="#fff"/>
      <rect id="Прямоугольник_678" data-name="Прямоугольник 678" width="6" height="1" rx="0.5" transform="translate(0.367 4.348)" fill="#fff"/>
    </g>
    <g id="Сгруппировать_6853" data-name="Сгруппировать 6853" transform="translate(515.32 228.652)">
      <rect id="Прямоугольник_677-2" data-name="Прямоугольник 677" width="15" height="2" rx="1" transform="translate(-0.32 0.348)" fill="#066"/>
      <rect id="Прямоугольник_678-2" data-name="Прямоугольник 678" width="7" height="1" rx="0.5" transform="translate(-0.32 4.348)" fill="#066"/>
    </g>
    <g id="Сгруппировать_6855" data-name="Сгруппировать 6855" transform="translate(544.394 228.652)">
      <rect id="Прямоугольник_677-3" data-name="Прямоугольник 677" width="15" height="2" rx="1" transform="translate(-0.394 0.348)" fill="#fff"/>
      <rect id="Прямоугольник_678-3" data-name="Прямоугольник 678" width="7" height="1" rx="0.5" transform="translate(-0.394 4.348)" fill="#fff"/>
    </g>
    <g id="Сгруппировать_6856" data-name="Сгруппировать 6856" transform="translate(573.081 228.652)">
      <rect id="Прямоугольник_677-4" data-name="Прямоугольник 677" width="15" height="2" rx="1" transform="translate(-0.081 0.348)" fill="#fff"/>
      <rect id="Прямоугольник_678-4" data-name="Прямоугольник 678" width="7" height="1" rx="0.5" transform="translate(-0.081 4.348)" fill="#fff"/>
    </g>
    <g id="Сгруппировать_6857" data-name="Сгруппировать 6857" transform="translate(601.768 228.652)">
      <rect id="Прямоугольник_677-5" data-name="Прямоугольник 677" width="14" height="2" rx="1" transform="translate(0.232 0.348)" fill="#fff"/>
      <rect id="Прямоугольник_678-5" data-name="Прямоугольник 678" width="6" height="1" rx="0.5" transform="translate(0.232 4.348)" fill="#fff"/>
    </g>
    <circle id="Эллипс_282" data-name="Эллипс 282" cx="3" cy="3" r="3" transform="translate(462 227)" fill="#066"/>
    <path id="Контур_3205" data-name="Контур 3205" d="M2.789,68.552l-1.56,1.56L.38,69.264l-.38.38,1.229,1.229L3.17,68.932Z" transform="translate(463.172 160.33)" fill="#ffd400"/>
    <rect id="Прямоугольник_680" data-name="Прямоугольник 680" width="20" height="2" rx="1" transform="translate(541 287)" fill="#066"/>
    <rect id="Прямоугольник_681" data-name="Прямоугольник 681" width="8" height="3" rx="1.5" transform="translate(484 243)" opacity="0.3"/>
    <rect id="Прямоугольник_682" data-name="Прямоугольник 682" width="9" height="3" rx="1.5" transform="translate(505 243)" opacity="0.3"/>
    <rect id="Прямоугольник_683" data-name="Прямоугольник 683" width="9" height="3" rx="1.5" transform="translate(527 243)" opacity="0.3"/>
    <rect id="Прямоугольник_684" data-name="Прямоугольник 684" width="8" height="3" rx="1.5" transform="translate(549 243)" opacity="0.3"/>
    <rect id="Прямоугольник_685" data-name="Прямоугольник 685" width="8" height="3" rx="1.5" transform="translate(570 243)" opacity="0.3"/>
    <rect id="Прямоугольник_686" data-name="Прямоугольник 686" width="8" height="3" rx="1.5" transform="translate(591 243)" opacity="0.3"/>
    <rect id="Прямоугольник_687" data-name="Прямоугольник 687" width="8" height="3" rx="1.5" transform="translate(612 243)" opacity="0.3"/>
  </g>
</svg>
