<svg xmlns="http://www.w3.org/2000/svg" width="16" height="19.692" viewBox="0 0 16 19.692">
    <g id="delete" opacity="0.5" transform="translate(-48)">
        <path id="Контур_1" d="M62.462 2.462h-3.385v-.616A1.848 1.848 0 0 0 57.231 0h-2.462a1.848 1.848 0 0 0-1.846 1.846v.615h-3.385A1.54 1.54 0 0 0 48 4v2.154a.615.615 0 0 0 .615.615h.336l.532 11.165a1.844 1.844 0 0 0 1.844 1.758h9.345a1.844 1.844 0 0 0 1.844-1.758l.532-11.165h.336A.615.615 0 0 0 64 6.154V4a1.54 1.54 0 0 0-1.538-1.538zm-8.308-.615a.616.616 0 0 1 .615-.615h2.462a.616.616 0 0 1 .615.615v.615h-3.692zM49.231 4a.308.308 0 0 1 .308-.308h12.923a.308.308 0 0 1 .307.308v1.538H49.231zm12.056 13.875a.615.615 0 0 1-.615.586h-9.345a.615.615 0 0 1-.615-.586l-.528-11.106h11.632z" data-name="Контур 1"/>
        <path id="Контур_2" d="M240.615 217.231a.615.615 0 0 0 .615-.615v-8a.615.615 0 0 0-1.231 0v8a.615.615 0 0 0 .616.615z" data-name="Контур 2" transform="translate(-184.615 -200)"/>
        <path id="Контур_3" d="M320.615 217.231a.615.615 0 0 0 .615-.615v-8a.615.615 0 1 0-1.231 0v8a.615.615 0 0 0 .616.615z" data-name="Контур 3" transform="translate(-261.538 -200)"/>
        <path id="Контур_4" d="M160.615 217.231a.615.615 0 0 0 .615-.615v-8a.615.615 0 0 0-1.231 0v8a.615.615 0 0 0 .616.615z" data-name="Контур 4" transform="translate(-107.692 -200)"/>
    </g>
</svg>
