<svg xmlns="http://www.w3.org/2000/svg" width="71" height="73" viewBox="0 0 71 73"><g><g><g><path fill="#ffd400" d="M30.207 30.207h10.069v7.552h-10.07z"/></g><g><path fill="#066" d="M0 55.38a2.517 2.517 0 0 0 2.517 2.517h65.449a2.517 2.517 0 0 0 2.517-2.517v-2.518H0z"/></g><g><path fill="#066" d="M12.586 30.207h10.07v7.552h-10.07z"/></g><g><path fill="#066" d="M47.828 30.207h10.069v7.552h-10.07z"/></g><g><path fill="#066" d="M30.207 15.104h10.069v7.551h-10.07z"/></g><g><path fill="#ffd400" d="M12.586 15.104h10.07v7.551h-10.07z"/></g><g><path fill="#066" d="M60.414 10.069H10.069V7.552h50.345zm0 12.586a2.517 2.517 0 0 1-2.517 2.517h-10.07a2.517 2.517 0 0 1-2.517-2.517v-7.552a2.517 2.517 0 0 1 2.518-2.517h10.069a2.517 2.517 0 0 1 2.517 2.517zm0 15.104a2.517 2.517 0 0 1-2.517 2.517h-10.07a2.517 2.517 0 0 1-2.517-2.517v-7.552a2.517 2.517 0 0 1 2.518-2.517h10.069a2.517 2.517 0 0 1 2.517 2.517zm0 10.069h-2.517V45.31h-10.07v2.518H45.31V45.31a2.517 2.517 0 0 1 2.518-2.517h10.069a2.517 2.517 0 0 1 2.517 2.517zm-17.62-25.173a2.517 2.517 0 0 1-2.518 2.517H30.207a2.517 2.517 0 0 1-2.517-2.517v-7.552a2.517 2.517 0 0 1 2.517-2.517h10.069a2.517 2.517 0 0 1 2.517 2.517zm0 15.104a2.517 2.517 0 0 1-2.518 2.517H30.207a2.517 2.517 0 0 1-2.517-2.517v-7.552a2.517 2.517 0 0 1 2.517-2.517h10.069a2.517 2.517 0 0 1 2.517 2.517zm0 10.069h-2.518V45.31H30.207v2.518H27.69V45.31a2.517 2.517 0 0 1 2.517-2.517h10.069a2.517 2.517 0 0 1 2.517 2.517zM25.171 22.655a2.517 2.517 0 0 1-2.517 2.517H12.586a2.517 2.517 0 0 1-2.517-2.517v-7.552a2.517 2.517 0 0 1 2.517-2.517h10.07a2.517 2.517 0 0 1 2.516 2.517zm0 15.104a2.517 2.517 0 0 1-2.517 2.517H12.586a2.517 2.517 0 0 1-2.517-2.517v-7.552a2.517 2.517 0 0 1 2.517-2.517h10.07a2.517 2.517 0 0 1 2.516 2.517zm0 10.069h-2.517V45.31H12.586v2.518H10.07V45.31a2.517 2.517 0 0 1 2.517-2.517h10.07a2.517 2.517 0 0 1 2.516 2.517zM10.07 2.518h2.517v2.516H10.07zm5.035 0h2.517v2.516h-2.517zm5.034 0h2.517v2.516h-2.517zm50.156 9.12c0-.01 0-.021-.009-.03a2.537 2.537 0 0 0-.452-.694c-.031-.034-.055-.074-.088-.108-.032-.032-.073-.056-.107-.088a2.543 2.543 0 0 0-.693-.45l-.032-.01a2.522 2.522 0 0 0-.947-.19h-2.518v37.76h-2.517V2.518A2.517 2.517 0 0 0 60.414 0H10.069a2.517 2.517 0 0 0-2.517 2.517v45.31H5.035V10.07H2.517A2.517 2.517 0 0 0 0 12.586v37.759h70.483V12.586c0-.325-.065-.647-.189-.947z"/></g><g><path fill="#066" d="M40.598 60.414H29.885l-3.021 10.07h-5.468V73h27.69v-2.517h-5.467z"/></g><g><path fill="#ffd400" d="M47.828 15.104h10.069v7.551h-10.07z"/></g></g></g></svg>