<svg xmlns="http://www.w3.org/2000/svg" width="14" height="18.379" viewBox="0 0 14 18.379">
    <defs>
        <style>
            .cls-1{fill:#066}
        </style>
    </defs>
    <g id="google-docs" transform="translate(-61)">
        <path id="Контур_10" d="M74.842 4.465L70.535.158A.539.539 0 0 0 70.154 0h-7.539A1.617 1.617 0 0 0 61 1.615v15.149a1.617 1.617 0 0 0 1.615 1.615h10.77A1.617 1.617 0 0 0 75 16.764V4.846a.543.543 0 0 0-.158-.381zm-4.15-2.627l2.469 2.469h-1.93a.539.539 0 0 1-.538-.538zM73.385 17.3h-10.77a.539.539 0 0 1-.538-.538V1.615a.539.539 0 0 1 .538-.538h7v2.692a1.617 1.617 0 0 0 1.615 1.615h2.692v11.38a.539.539 0 0 1-.537.536z" class="cls-1" data-name="Контур 10"/>
        <path id="Контур_11" d="M158 212h-6.462a.538.538 0 0 0 0 1.077H158a.538.538 0 0 0 0-1.077z" class="cls-1" data-name="Контур 11" transform="translate(-86.769 -204.39)"/>
        <path id="Контур_12" d="M158 272h-6.462a.538.538 0 0 0 0 1.077H158a.538.538 0 0 0 0-1.077z" class="cls-1" data-name="Контур 12" transform="translate(-86.769 -262.236)"/>
        <path id="Контур_13" d="M158 332h-6.462a.538.538 0 0 0 0 1.077H158a.538.538 0 0 0 0-1.077z" class="cls-1" data-name="Контур 13" transform="translate(-86.769 -320.082)"/>
        <path id="Контур_14" d="M155.846 392h-4.308a.538.538 0 0 0 0 1.077h4.308a.538.538 0 1 0 0-1.077z" class="cls-1" data-name="Контур 14" transform="translate(-86.769 -377.928)"/>
    </g>
</svg>
