<svg xmlns="http://www.w3.org/2000/svg" width="16" height="15" viewBox="0 0 16 15"><g><g><g><g><path fill="#066" d="M7.53 10.521c.26.259.679.259.938 0l3.704-3.704a.663.663 0 0 0-.468-1.131h-1.62V.882A.882.882 0 0 0 9.204 0H6.795a.882.882 0 0 0-.882.882v4.804H4.295a.662.662 0 0 0-.468 1.13z"/></g></g><g><g><path fill="#066" d="M15.204 6.83a.795.795 0 0 0-.795.796v3.326a1.81 1.81 0 0 1-1.807 1.807H3.398a1.81 1.81 0 0 1-1.807-1.807V7.626a.796.796 0 0 0-1.591 0v3.326a3.402 3.402 0 0 0 3.398 3.398h9.204A3.402 3.402 0 0 0 16 10.952V7.626a.795.795 0 0 0-.796-.796z"/></g></g></g></g></svg>