<svg xmlns="http://www.w3.org/2000/svg" width="20" height="19" viewBox="0 0 20 19"><g><g><g><g><g><path fill="#066" d="M18.694 13.239a.578.578 0 0 1-.577.577H7.692c-.153 0-.3.06-.408.169l-2.478 2.477v-2.069a.577.577 0 0 0-.577-.577H1.883a.578.578 0 0 1-.577-.577V1.698c0-.319.258-.578.577-.578h16.234c.319 0 .577.26.577.578zM18.117-.034H1.883C.928-.034.15.743.15 1.698v11.54c0 .955.777 1.732 1.732 1.732h1.77v2.885a.577.577 0 0 0 .984.408l3.294-3.293h10.186c.955 0 1.732-.777 1.732-1.731V1.698c0-.955-.777-1.732-1.732-1.732z"/></g></g></g><g><path fill="#066" d="M16.135 4H3.625a.626.626 0 0 0 0 1.251h12.51a.626.626 0 0 0 0-1.251z"/></g><g><path fill="#066" d="M16.135 7H3.625a.626.626 0 0 0 0 1.251h12.51a.626.626 0 0 0 0-1.251z"/></g><g><path fill="#066" d="M11.135 10h-7.51a.626.626 0 0 0 0 1.251h7.51a.626.626 0 0 0 0-1.251z"/></g></g></g></svg>