<svg id="calendar" xmlns="http://www.w3.org/2000/svg" width="18" height="18" viewBox="0 0 18 18">
  <g id="Сгруппировать_91" data-name="Сгруппировать 91">
    <g id="Сгруппировать_90" data-name="Сгруппировать 90">
      <path id="Контур_15" data-name="Контур 15" d="M16.071,1.929H14.143V.643a.643.643,0,1,0-1.286,0V1.929H5.143V.643a.643.643,0,1,0-1.286,0V1.929H1.929A1.929,1.929,0,0,0,0,3.857V16.071A1.929,1.929,0,0,0,1.929,18H16.071A1.929,1.929,0,0,0,18,16.071V3.857A1.929,1.929,0,0,0,16.071,1.929Zm.643,14.143a.643.643,0,0,1-.643.643H1.929a.643.643,0,0,1-.643-.643V7.714H16.714Zm0-9.643H1.286V3.857a.643.643,0,0,1,.643-.643H3.857V4.5a.643.643,0,1,0,1.286,0V3.214h7.714V4.5a.643.643,0,1,0,1.286,0V3.214h1.929a.643.643,0,0,1,.643.643V6.429Z"/>
    </g>
  </g>
  <g id="Сгруппировать_93" data-name="Сгруппировать 93" transform="translate(3.214 9)">
    <g id="Сгруппировать_92" data-name="Сгруппировать 92">
      <path id="Контур_16" data-name="Контур 16" d="M87.262,238.933H85.976a.643.643,0,0,0,0,1.286h1.286a.643.643,0,1,0,0-1.286Z" transform="translate(-85.333 -238.933)"/>
    </g>
  </g>
  <g id="Сгруппировать_95" data-name="Сгруппировать 95" transform="translate(7.714 9)">
    <g id="Сгруппировать_94" data-name="Сгруппировать 94">
      <path id="Контур_17" data-name="Контур 17" d="M206.729,238.933h-1.286a.643.643,0,1,0,0,1.286h1.286a.643.643,0,0,0,0-1.286Z" transform="translate(-204.8 -238.933)"/>
    </g>
  </g>
  <g id="Сгруппировать_97" data-name="Сгруппировать 97" transform="translate(12.214 9)">
    <g id="Сгруппировать_96" data-name="Сгруппировать 96">
      <path id="Контур_18" data-name="Контур 18" d="M326.2,238.933H324.91a.643.643,0,0,0,0,1.286H326.2a.643.643,0,0,0,0-1.286Z" transform="translate(-324.267 -238.933)"/>
    </g>
  </g>
  <g id="Сгруппировать_99" data-name="Сгруппировать 99" transform="translate(3.214 11.571)">
    <g id="Сгруппировать_98" data-name="Сгруппировать 98">
      <path id="Контур_19" data-name="Контур 19" d="M87.262,307.2H85.976a.643.643,0,0,0,0,1.286h1.286a.643.643,0,1,0,0-1.286Z" transform="translate(-85.333 -307.2)"/>
    </g>
  </g>
  <g id="Сгруппировать_101" data-name="Сгруппировать 101" transform="translate(7.714 11.571)">
    <g id="Сгруппировать_100" data-name="Сгруппировать 100">
      <path id="Контур_20" data-name="Контур 20" d="M206.729,307.2h-1.286a.643.643,0,1,0,0,1.286h1.286a.643.643,0,0,0,0-1.286Z" transform="translate(-204.8 -307.2)"/>
    </g>
  </g>
  <g id="Сгруппировать_103" data-name="Сгруппировать 103" transform="translate(12.214 11.571)">
    <g id="Сгруппировать_102" data-name="Сгруппировать 102">
      <path id="Контур_21" data-name="Контур 21" d="M326.2,307.2H324.91a.643.643,0,0,0,0,1.286H326.2a.643.643,0,1,0,0-1.286Z" transform="translate(-324.267 -307.2)"/>
    </g>
  </g>
  <g id="Сгруппировать_105" data-name="Сгруппировать 105" transform="translate(3.214 14.143)">
    <g id="Сгруппировать_104" data-name="Сгруппировать 104">
      <path id="Контур_22" data-name="Контур 22" d="M87.262,375.467H85.976a.643.643,0,1,0,0,1.286h1.286a.643.643,0,1,0,0-1.286Z" transform="translate(-85.333 -375.467)"/>
    </g>
  </g>
  <g id="Сгруппировать_107" data-name="Сгруппировать 107" transform="translate(7.714 14.143)">
    <g id="Сгруппировать_106" data-name="Сгруппировать 106">
      <path id="Контур_23" data-name="Контур 23" d="M206.729,375.467h-1.286a.643.643,0,1,0,0,1.286h1.286a.643.643,0,1,0,0-1.286Z" transform="translate(-204.8 -375.467)"/>
    </g>
  </g>
  <g id="Сгруппировать_109" data-name="Сгруппировать 109" transform="translate(12.214 14.143)">
    <g id="Сгруппировать_108" data-name="Сгруппировать 108">
      <path id="Контур_24" data-name="Контур 24" d="M326.2,375.467H324.91a.643.643,0,1,0,0,1.286H326.2a.643.643,0,1,0,0-1.286Z" transform="translate(-324.267 -375.467)"/>
    </g>
  </g>
</svg>
