<svg xmlns="http://www.w3.org/2000/svg" width="57" height="74" viewBox="0 0 57 74"><g><g><g><path fill="#066" d="M2 72V53h53v19z"/></g><g><path fill="#ffd400" d="M34.396 58.518c-.293-.393-.63-.675-1.004-.849a2.79 2.79 0 0 0-1.187-.26c-.427 0-.833.08-1.221.243-.388.162-.733.435-1.039.822-.305.386-.546.885-.718 1.498-.173.612-.266 1.362-.277 2.251.011.867.101 1.605.268 2.217.168.612.398 1.11.693 1.498.295.388.63.67 1.005.849.375.18.77.268 1.186.268a3.05 3.05 0 0 0 1.222-.25c.387-.168.733-.442 1.038-.822.306-.38.546-.88.718-1.499.173-.618.266-1.37.278-2.26-.012-.866-.101-1.602-.269-2.207-.167-.606-.397-1.106-.693-1.499z"/></g><g><path fill="#066" d="M12.667 33.2a2.536 2.536 0 0 0 2.533-2.533V25.6c0-2.095 1.705-3.8 3.8-3.8a1.266 1.266 0 1 1 0 2.533c-.7 0-1.267.569-1.267 1.267v5.067c0 1.52-.686 2.87-1.75 3.8 1.064.93 1.75 2.28 1.75 3.8v5.066c0 .698.568 1.267 1.267 1.267a1.266 1.266 0 1 1 0 2.533 3.805 3.805 0 0 1-3.8-3.8v-5.066a2.536 2.536 0 0 0-2.533-2.534 1.266 1.266 0 1 1 0-2.533zm15.2-5.067a1.9 1.9 0 1 1-.002 3.802 1.9 1.9 0 0 1 .002-3.802zM38 25.6c0-.698-.567-1.267-1.267-1.267a1.266 1.266 0 1 1 0-2.533c2.095 0 3.8 1.705 3.8 3.8v5.067a2.536 2.536 0 0 0 2.534 2.533 1.266 1.266 0 1 1 0 2.533 2.536 2.536 0 0 0-2.534 2.534v5.066c0 2.095-1.705 3.8-3.8 3.8a1.266 1.266 0 1 1 0-2.533c.7 0 1.267-.569 1.267-1.267v-5.066c0-1.52.687-2.87 1.75-3.8-1.063-.93-1.75-2.28-1.75-3.8zm1.267-21.038c0-.58.7-.87 1.11-.46l12.788 12.787a.65.65 0 0 1-.46 1.11H39.267zM29.133 42.067a1.266 1.266 0 1 1-2.533 0v-3.8a1.266 1.266 0 1 1 2.533 0zM57 49.667V17.972c0-.97-.117-1.688-.697-2.27L41.563.963a2.396 2.396 0 0 0-1.682-.696H3.12C1.618.267 0 1.427 0 3.973v45.694z"/></g><g><path fill="#ffd400" d="M49.628 68.666h-2.113l-5.004-8.797v8.797h-2.113V55.903h2.113l5.004 8.797v-8.797h2.113zm-12.564-3.602c-.271.82-.647 1.5-1.126 2.043a4.727 4.727 0 0 1-1.68 1.23 5.242 5.242 0 0 1-2.104.415 5.242 5.242 0 0 1-2.104-.415 4.712 4.712 0 0 1-1.68-1.23c-.478-.543-.854-1.224-1.125-2.043-.271-.82-.407-1.767-.407-2.84s.136-2.018.407-2.831c.27-.813.647-1.492 1.126-2.034a4.83 4.83 0 0 1 1.68-1.239 5.14 5.14 0 0 1 2.103-.424c.762 0 1.463.14 2.104.424s1.201.695 1.68 1.239c.479.543.855 1.22 1.126 2.034.271.813.407 1.758.407 2.831s-.136 2.02-.407 2.84zM24.647 66.51c-.19.434-.459.815-.806 1.143a3.86 3.86 0 0 1-1.282.788c-.509.196-1.084.294-1.731.294-.278 0-.563-.016-.858-.043a6.956 6.956 0 0 1-.891-.147c-.3-.07-.587-.165-.858-.287a2.772 2.772 0 0 1-.702-.442l.364-1.49c.162.093.366.183.614.27.248.085.504.167.77.241.266.075.531.136.797.183.266.047.513.07.745.07.704 0 1.244-.165 1.619-.495.375-.329.562-.817.562-1.463 0-.392-.132-.727-.398-1.004a4.313 4.313 0 0 0-.995-.754c-.398-.225-.829-.45-1.291-.675a7.872 7.872 0 0 1-1.298-.797 4.156 4.156 0 0 1-1.005-1.081c-.266-.416-.398-.935-.398-1.558 0-.565.104-1.068.312-1.507a3.37 3.37 0 0 1 .84-1.117c.352-.305.762-.54 1.23-.701a4.487 4.487 0 0 1 1.48-.242c.531 0 1.068.049 1.61.147.543.097.98.257 1.316.476-.07.15-.149.314-.241.494l-.26.501c-.08.156-.15.287-.208.39a1.601 1.601 0 0 1-.104.174 2.091 2.091 0 0 1-.234-.138 1.761 1.761 0 0 0-.372-.174 2.656 2.656 0 0 0-.641-.121 6.056 6.056 0 0 0-1.023.018c-.231.024-.45.088-.658.198a2.28 2.28 0 0 0-.555.407 1.855 1.855 0 0 0-.381.546 1.398 1.398 0 0 0-.138.58c0 .461.131.834.397 1.117.266.284.596.531.987.745.391.214.82.422 1.282.623.462.202.892.449 1.29.736.4.288.73.65.996 1.082.266.432.398.99.398 1.67.005.463-.091.91-.281 1.343zm-10.054-.927c0 .6-.11 1.106-.33 1.515-.218.41-.512.739-.882.987s-.794.422-1.273.52a7.404 7.404 0 0 1-1.48.146 6.02 6.02 0 0 1-.892-.078 7.616 7.616 0 0 1-1.057-.242c-.363-.11-.713-.235-1.047-.373a3.886 3.886 0 0 1-.849-.467l.883-1.402c.115.08.28.164.494.25.214.087.448.168.702.242.253.075.519.141.796.2.278.058.537.085.78.085.611 0 1.099-.119 1.462-.354.364-.236.556-.639.58-1.204v-9.767h2.113zM0 52.2v19c0 1.278 1.545 2.533 3.12 2.533h50.76c1.575 0 3.12-1.255 3.12-2.533v-19z"/></g></g></g></svg>