<svg xmlns="http://www.w3.org/2000/svg" width="40" height="30" viewBox="0 0 40 30"><g><g><path fill="#066" d="M24.581 8.686a4.587 4.587 0 1 0-9.174 0 4.587 4.587 0 0 0 9.174 0zm4.1 0c0 6.628-5.518 7.87-8.113 14.24a.62.62 0 0 1-1.15-.003c-2.34-5.743-7.057-7.317-7.96-12.433C10.57 5.454 14.058.521 19.149.04a8.688 8.688 0 0 1 9.532 8.646zm4.496 8.289l5.904 12.128c.24.493-.012.897-.56.897H1.48c-.55 0-.802-.404-.562-.897l5.904-12.128a.684.684 0 0 1 .561-.351h5.063c.156 0 .366.098.468.216.344.397.694.784 1.043 1.168.331.364.664.734.994 1.111H8.945a.684.684 0 0 0-.561.351l-3.911 8.035h31.055l-3.911-8.035a.684.684 0 0 0-.561-.35h-6.022c.33-.378.664-.748.995-1.112.35-.385.702-.772 1.046-1.169a.708.708 0 0 1 .468-.215h5.073c.215 0 .467.158.561.35z"/></g></g></svg>