<svg xmlns="http://www.w3.org/2000/svg" width="26" height="26" viewBox="0 0 26 26"><g><g><path fill="#066" d="M0 13C0 5.82 5.82 0 13 0s13 5.82 13 13-5.82 13-13 13S0 20.18 0 13z"/></g><g><path fill="#fff" d="M13.325 15.576v1.441a.632.632 0 1 1-1.265 0v-1.44a1.26 1.26 0 0 1 .632-2.355 1.26 1.26 0 1 1 .632 2.354zm-3.163-6.781a2.532 2.532 0 0 1 2.53-2.53 2.532 2.532 0 0 1 2.53 2.53v1.897h-5.06zm6.325 1.897V8.795A3.799 3.799 0 0 0 12.692 5a3.799 3.799 0 0 0-3.795 3.795v1.897h-.474c-.784 0-1.423.639-1.423 1.423v6.642c0 .785.639 1.423 1.423 1.423h8.539c.784 0 1.423-.638 1.423-1.423v-6.642c0-.784-.639-1.423-1.423-1.423z"/></g></g></svg>