<svg xmlns="http://www.w3.org/2000/svg" width="14" height="20" viewBox="0 0 14 20"><g><g><g><g><g><path fill="#066" d="M7 12.19a.54.54 0 0 1-.21-1.035c.241-.102.53-.015.792.239a.538.538 0 0 0 .75-.773 2.115 2.115 0 0 0-.794-.496v-.628a.538.538 0 0 0-1.076 0v.631a1.613 1.613 0 0 0-1.077 1.523c0 .891.724 1.616 1.615 1.616a.54.54 0 0 1 .184 1.044c-.276.101-.598-.036-.883-.375a.538.538 0 1 0-.825.693c.291.347.63.584.986.704v.626a.538.538 0 1 0 1.076 0v-.63l.015-.006a1.62 1.62 0 0 0 1.062-1.518c0-.89-.724-1.615-1.615-1.615z"/></g></g></g><g><g><g><path fill="#066" d="M7 18.12c-4.207 0-5.923-1.1-5.923-3.776 0-1.62.662-3.403 1.772-4.768C4.019 8.136 5.493 7.344 7 7.344c1.659 0 3.11.95 4.151 2.232 1.11 1.365 1.772 3.147 1.772 4.768 0 2.677-1.716 3.776-5.923 3.776zM5.252 5.473a5.567 5.567 0 0 1 3.496 0 .54.54 0 0 1-.11 1.047A5.46 5.46 0 0 0 7 6.267a5.46 5.46 0 0 0-1.635.252.536.536 0 0 1-.456-.366.54.54 0 0 1 .343-.68zM4.9 2.11a9.951 9.951 0 0 1 4.2 0L7.914 4.178a6.605 6.605 0 0 0-1.828 0zm7.087 6.786c-.64-.787-1.372-1.414-2.175-1.865.132-.156.235-.338.303-.542.262-.8-.122-1.752-1.102-2.062l1.374-2.396a.539.539 0 0 0-.316-.785A10.994 10.994 0 0 0 7 .81c-1.044 0-2.077.147-3.07.436a.539.539 0 0 0-.317.785l1.374 2.396c-.976.309-1.365 1.259-1.101 2.063.066.203.17.385.302.54-.803.452-1.535 1.08-2.175 1.866C.733 10.47 0 12.456 0 14.344c0 3.916 3.125 4.846 7 4.846 3.878 0 7-.932 7-4.846 0-1.888-.734-3.874-2.013-5.448z"/></g></g></g></g></g></svg>