<svg xmlns="http://www.w3.org/2000/svg" width="20" height="30" viewBox="0 0 10 15"><g><g><path fill="#066" d="M4.625 15A4.63 4.63 0 0 1 0 10.375V3.9a.616.616 0 1 1 1.233 0v6.475a3.396 3.396 0 0 0 3.392 3.392 3.396 3.396 0 0 0 3.392-3.392V3.592a2.16 2.16 0 0 0-2.159-2.158A2.16 2.16 0 0 0 3.7 3.592v6.166a.926.926 0 0 0 1.85 0V3.9a.616.616 0 1 1 1.233 0v5.858a2.16 2.16 0 0 1-2.158 2.159 2.16 2.16 0 0 1-2.158-2.159V3.592A3.396 3.396 0 0 1 5.858.2 3.396 3.396 0 0 1 9.25 3.592v6.783A4.63 4.63 0 0 1 4.625 15z"/></g></g></svg>