<svg xmlns="http://www.w3.org/2000/svg" width="52" height="52" viewBox="0 0 52 52"><defs><clipPath id="p4kia"><path fill="#fff" d="M30.878 17.104a7.319 7.319 0 1 1 14.637 0 7.319 7.319 0 0 1-14.637 0z"/></clipPath></defs><g><g><g><path fill="#066" d="M10 52C4.477 52 0 47.523 0 42V10C0 4.477 4.477 0 10 0h32c5.523 0 10 4.477 10 10v32c0 5.523-4.477 10-10 10z"/></g><g><g><g><g><path fill="#ffd400" d="M42.076 25.414c-.583 0-1.051.609-1.051 1.192V35.8h-29.17V23.661H27.71c.583 0 1.056-.532 1.056-1.115s-.473-1.22-1.056-1.22H11.854V17.36h15.857c.583 0 1.056-.584 1.056-1.167 0-.583-.473-1.2-1.056-1.2H11.596a2.112 2.112 0 0 0-2.11 2.11v19c0 1.166.945 2.111 2.11 2.111h29.556a2.112 2.112 0 0 0 2.111-2.11v-9.641c0-.583-.604-1.05-1.187-1.05z"/></g></g></g><g><g><g><path fill="#ffd400" d="M19.506 27.659h-4.639a1.16 1.16 0 0 0 0 2.32h4.639a1.16 1.16 0 0 0 0-2.32z"/></g></g></g><g><path fill="none" stroke="#fed430" stroke-miterlimit="20" stroke-width="3.6" d="M30.878 17.104a7.319 7.319 0 1 1 14.637 0 7.319 7.319 0 0 1-14.637 0z" clip-path="url(&quot;#p4kia&quot;)"/></g><g><path fill="#fed430" d="M38.613 17.714l.073.022c.195.063.338.146.43.248a.565.565 0 0 1 .14.394.58.58 0 0 1-.172.427.847.847 0 0 1-.471.223zm-1.27-1.877c0-.175.058-.321.174-.438a.817.817 0 0 1 .475-.22v1.344l-.058-.022a.968.968 0 0 1-.442-.266.587.587 0 0 1-.15-.398zm.65 4.717h.62v-.657c.321-.029.605-.115.85-.259a1.56 1.56 0 0 0 .57-.555c.134-.226.201-.48.201-.763 0-.726-.433-1.227-1.3-1.505l-.321-.102v-1.482c.18.063.338.162.475.296.136.133.243.298.32.492l.819-.365a1.996 1.996 0 0 0-.614-.876 2.063 2.063 0 0 0-1-.446v-.679h-.62v.65a2.02 2.02 0 0 0-.852.245 1.514 1.514 0 0 0-.573.555c-.136.231-.204.49-.204.778 0 .36.108.67.325.927.216.258.534.455.953.592l.35.11v1.474a1.437 1.437 0 0 1-.595-.336 1.726 1.726 0 0 1-.413-.606l-.825.358c.127.4.354.732.683.997.329.265.712.43 1.15.493z"/></g></g></g></g></svg>