<svg xmlns="http://www.w3.org/2000/svg" width="14" height="14" viewBox="0 0 14 14"><g><g><g><path fill="#066" d="M13.12 9.769H9.811a1.166 1.166 0 0 1-1.164-1.165c0-.642.522-1.164 1.164-1.164h3.31zm-.4 2.827H1.978A1.099 1.099 0 0 1 .88 11.498V4.043c.315.21.692.334 1.098.334H12.72c.22 0 .4.18.4.4V6.56H9.811a2.046 2.046 0 0 0-2.044 2.044c0 1.127.917 2.044 2.044 2.044h3.31v1.547c0 .22-.18.4-.401.4zM1.978 1.405h9.287c.221 0 .4.18.4.4v1.692H1.979c-.588 0-1.07-.465-1.096-1.046a1.099 1.099 0 0 1 1.096-1.046zM12.72 3.497h-.175V1.805c0-.706-.574-1.28-1.28-1.28H1.978A1.98 1.98 0 0 0 .01 2.309c-.014.07-.01-.56-.01 9.19a1.98 1.98 0 0 0 1.978 1.976H12.72c.706 0 1.28-.574 1.28-1.28V4.778c0-.706-.574-1.28-1.28-1.28z"/></g><g><path fill="#066" d="M9.336 8.604a.637.637 0 1 1 1.275 0 .637.637 0 0 1-1.275 0z"/></g></g></g></svg>