<svg xmlns="http://www.w3.org/2000/svg" width="20" height="18" viewBox="0 0 20 18"><g><g><g><path fill="#fff" d="M18.336 13.106a.2.2 0 0 1-.197.197h-2.186v-2.927a.59.59 0 0 0-.59-.59H4.153a.59.59 0 0 0-.59.59v2.927H1.377a.2.2 0 0 1-.197-.197v-7.57a.2.2 0 0 1 .197-.197h16.762a.2.2 0 0 1 .197.197v7.57zm-3.563 3.714H4.743v-5.854h10.03zM4.743 1.18h10.03v2.98H4.743zm13.396 2.98h-2.186V.59a.59.59 0 0 0-.59-.59H4.153a.59.59 0 0 0-.59.59v3.57H1.377C.617 4.16 0 4.776 0 5.535v7.57c0 .76.618 1.377 1.377 1.377h2.186v2.927c0 .326.264.59.59.59h11.21a.59.59 0 0 0 .59-.59v-2.927h2.186c.759 0 1.377-.618 1.377-1.377v-7.57c0-.76-.618-1.377-1.377-1.377z"/></g><g><path fill="#fff" d="M14.524 7.563a.84.84 0 1 1 1.678 0 .84.84 0 0 1-1.678 0z"/></g><g><path fill="#fff" d="M12.442 12.13H7.073a.59.59 0 1 0 0 1.18h5.37a.59.59 0 1 0 0-1.18z"/></g><g><path fill="#fff" d="M12.442 14.475H7.073a.59.59 0 1 0 0 1.18h5.37a.59.59 0 1 0 0-1.18z"/></g></g></g></svg>