<svg xmlns="http://www.w3.org/2000/svg" width="18" height="17.995" viewBox="0 0 18 17.995">
    <defs>
        <style>
            .cls-1{fill:#066}
        </style>
    </defs>
    <g id="close" transform="translate(0 -.07)">
        <g id="Сгруппировать_121" data-name="Сгруппировать 121" transform="translate(0 .07)">
            <g id="Сгруппировать_120" data-name="Сгруппировать 120">
                <path id="Контур_27" d="M15.368 2.7a9 9 0 1 0 0 12.731 9.014 9.014 0 0 0 0-12.731zm-.986 11.745a7.608 7.608 0 1 1 0-10.759 7.617 7.617 0 0 1 0 10.76z" class="cls-1" data-name="Контур 27" transform="translate(0 -.07)"/>
            </g>
        </g>
        <g id="Сгруппировать_123" data-name="Сгруппировать 123" transform="translate(5.879 5.861)">
            <g id="Сгруппировать_122" data-name="Сгруппировать 122">
                <path id="Контур_28" d="M173.364 169.946l-1.974-1.971 1.974-1.975a.7.7 0 1 0-.986-.987l-1.978 1.977-1.975-1.973a.7.7 0 1 0-.986.987l1.974 1.971-1.974 1.971a.7.7 0 0 0 .986.987l1.975-1.973 1.975 1.973a.7.7 0 1 0 .986-.987z" class="cls-1" data-name="Контур 28" transform="translate(-167.236 -164.813)"/>
            </g>
        </g>
    </g>
</svg>
