<svg xmlns="http://www.w3.org/2000/svg" width="18" height="18" viewBox="0 0 18 18"><g><g><g><g><g><path fill="#066" d="M16.84 10.405l-2.532 3.375a2.649 2.649 0 0 1-2.11 1.055H5.6l-1.976-3.952.998-.879a2.643 2.643 0 0 1 3.484 0c.585.515.949.613 1.328.613h2.766a.528.528 0 0 1 0 1.054H9.505a.528.528 0 0 0 0 1.055h3.047c.438 0 .86-.184 1.158-.504L16.03 9.73a.528.528 0 0 1 .808.675zM4.62 16.417l-.694.347-2.692-5.384.694-.348a.527.527 0 0 1 .708.236l2.22 4.442c.13.26.025.577-.236.707zM17.437 8.88c-.602-.496-1.553-.539-2.178.131l-1.55 1.664a1.585 1.585 0 0 0-1.51-1.113H9.433c-.21 0-.28-.08-.645-.361a3.699 3.699 0 0 0-4.864.012l-1.016.895a1.575 1.575 0 0 0-1.45-.019l-1.166.583a.528.528 0 0 0-.236.708l3.164 6.327c.13.261.447.366.707.236l1.166-.583a1.58 1.58 0 0 0 .874-1.47H12.2c1.155 0 2.26-.552 2.953-1.477l2.531-3.375c.491-.655.413-1.614-.246-2.158z"/></g></g></g><g><g><g><path fill="#066" d="M7.418 6.398c0-1.163.982-2.144 2.144-2.144 1.163 0 2.11.961 2.11 2.144zm2.144-5.343c.572 0 1.055.499 1.055 1.09 0 .58-.473 1.054-1.055 1.054-.59 0-1.09-.483-1.09-1.055 0-.58.51-1.09 1.09-1.09zm1.526 2.543a2.1 2.1 0 0 0 .583-1.454C11.671.984 10.733 0 9.562 0 8.4 0 7.418.982 7.418 2.144c0 .547.214 1.062.603 1.459-.965.54-1.658 1.578-1.658 2.795v.527c0 .291.236.528.527.528H12.2a.528.528 0 0 0 .527-.528v-.527a3.214 3.214 0 0 0-1.638-2.8z"/></g></g></g></g></g></svg>