<svg xmlns="http://www.w3.org/2000/svg" width="14" height="14" viewBox="0 0 14 14"><g><g><path fill="#066" d="M13.18 11.922a.41.41 0 0 1-.41.41H1.23a.41.41 0 0 1-.41-.41V5.426l.655 1.963c.167.503.637.841 1.167.841h2.307v.41c0 .227.184.41.41.41h3.282a.41.41 0 0 0 .41-.41v-.41h2.307c.53 0 1-.338 1.167-.84l.655-1.964zM8.23 7.41v.82H5.77v-.82zm4.79-4.101l-1.273 3.82a.41.41 0 0 1-.389.281H9.051V7a.41.41 0 0 0-.41-.41H5.359a.41.41 0 0 0-.41.41v.41H2.642a.41.41 0 0 1-.39-.28L.98 3.309zm-8.07-1.23a.41.41 0 0 1 .41-.411h3.28a.41.41 0 0 1 .41.41v.41h-4.1zm8.642.41H9.871v-.41c0-.68-.552-1.231-1.23-1.231H5.359c-.678 0-1.23.552-1.23 1.23v.41H.41a.411.411 0 0 0-.41.41v9.024c0 .678.552 1.23 1.23 1.23h11.54c.678 0 1.23-.552 1.23-1.23V2.905c-.016-.269-.181-.415-.408-.417z"/></g></g></svg>