<svg xmlns="http://www.w3.org/2000/svg" width="220" height="96" viewBox="0 0 220 96">
  <g id="Сгруппировать_6875" data-name="Сгруппировать 6875" transform="translate(-499 -592)">
    <rect id="Прямоугольник_689" data-name="Прямоугольник 689" width="220" height="14" rx="2" transform="translate(499 592)" fill="#066"/>
    <g id="Сгруппировать_6860" data-name="Сгруппировать 6860">
      <rect id="Прямоугольник_690" data-name="Прямоугольник 690" width="15" height="2" rx="1" transform="translate(517 598)" fill="#fff"/>
      <circle id="Эллипс_283" data-name="Эллипс 283" cx="3" cy="3" r="3" transform="translate(509 596)" fill="#ffd400"/>
    </g>
    <g id="Сгруппировать_6861" data-name="Сгруппировать 6861" transform="translate(35)">
      <rect id="Прямоугольник_690-2" data-name="Прямоугольник 690" width="15" height="2" rx="1" transform="translate(517 598)" fill="#fff"/>
      <circle id="Эллипс_283-2" data-name="Эллипс 283" cx="3" cy="3" r="3" transform="translate(509 596)" fill="#ffd400"/>
    </g>
    <g id="Сгруппировать_6862" data-name="Сгруппировать 6862" transform="translate(71)">
      <rect id="Прямоугольник_690-3" data-name="Прямоугольник 690" width="15" height="2" rx="1" transform="translate(517 598)" fill="#fff"/>
      <circle id="Эллипс_283-3" data-name="Эллипс 283" cx="3" cy="3" r="3" transform="translate(509 596)" fill="#fff"/>
    </g>
    <g id="Сгруппировать_6863" data-name="Сгруппировать 6863" transform="translate(106)">
      <rect id="Прямоугольник_690-4" data-name="Прямоугольник 690" width="15" height="2" rx="1" transform="translate(517 598)" fill="#fff"/>
      <circle id="Эллипс_283-4" data-name="Эллипс 283" cx="3" cy="3" r="3" transform="translate(509 596)" fill="#fff"/>
    </g>
    <g id="Сгруппировать_6864" data-name="Сгруппировать 6864" transform="translate(142)">
      <rect id="Прямоугольник_690-5" data-name="Прямоугольник 690" width="15" height="2" rx="1" transform="translate(517 598)" fill="#fff"/>
      <circle id="Эллипс_283-5" data-name="Эллипс 283" cx="3" cy="3" r="3" transform="translate(509 596)" fill="#fff"/>
    </g>
    <g id="Сгруппировать_6865" data-name="Сгруппировать 6865" transform="translate(177)">
      <rect id="Прямоугольник_690-6" data-name="Прямоугольник 690" width="15" height="2" rx="1" transform="translate(517 598)" fill="#fff"/>
      <circle id="Эллипс_283-6" data-name="Эллипс 283" cx="3" cy="3" r="3" transform="translate(509 596)" fill="#fff"/>
    </g>
    <rect id="Прямоугольник_691" data-name="Прямоугольник 691" width="23" height="2" rx="1" transform="translate(544 604)" fill="#ffd400"/>
    <g id="Сгруппировать_6867" data-name="Сгруппировать 6867">
      <rect id="Прямоугольник_693" data-name="Прямоугольник 693" width="70" height="12" rx="2" transform="translate(499 619)" fill="#b4d3d3"/>
      <g id="Сгруппировать_6866" data-name="Сгруппировать 6866">
        <rect id="Прямоугольник_694" data-name="Прямоугольник 694" width="38" height="2" rx="1" transform="translate(502 622)" opacity="0.3"/>
        <rect id="Прямоугольник_695" data-name="Прямоугольник 695" width="14" height="2" rx="1" transform="translate(502 626)" opacity="0.3"/>
      </g>
    </g>
    <g id="Сгруппировать_6868" data-name="Сгруппировать 6868" transform="translate(75)">
      <rect id="Прямоугольник_693-2" data-name="Прямоугольник 693" width="70" height="12" rx="2" transform="translate(499 619)" fill="#b4d3d3"/>
      <g id="Сгруппировать_6866-2" data-name="Сгруппировать 6866">
        <rect id="Прямоугольник_694-2" data-name="Прямоугольник 694" width="38" height="2" rx="1" transform="translate(502 622)" opacity="0.3"/>
        <rect id="Прямоугольник_695-2" data-name="Прямоугольник 695" width="14" height="2" rx="1" transform="translate(502 626)" opacity="0.3"/>
      </g>
    </g>
    <g id="Сгруппировать_6869" data-name="Сгруппировать 6869" transform="translate(150)">
      <rect id="Прямоугольник_693-3" data-name="Прямоугольник 693" width="70" height="12" rx="2" transform="translate(499 619)" fill="#b4d3d3"/>
      <g id="Сгруппировать_6866-3" data-name="Сгруппировать 6866">
        <rect id="Прямоугольник_694-3" data-name="Прямоугольник 694" width="38" height="2" rx="1" transform="translate(502 622)" opacity="0.3"/>
        <rect id="Прямоугольник_695-3" data-name="Прямоугольник 695" width="14" height="2" rx="1" transform="translate(502 626)" opacity="0.3"/>
      </g>
    </g>
    <g id="Сгруппировать_6870" data-name="Сгруппировать 6870" transform="translate(0 16)">
      <rect id="Прямоугольник_693-4" data-name="Прямоугольник 693" width="70" height="12" rx="2" transform="translate(499 619)" fill="#b4d3d3"/>
      <g id="Сгруппировать_6866-4" data-name="Сгруппировать 6866">
        <rect id="Прямоугольник_694-4" data-name="Прямоугольник 694" width="38" height="2" rx="1" transform="translate(502 622)" opacity="0.3"/>
        <rect id="Прямоугольник_695-4" data-name="Прямоугольник 695" width="14" height="2" rx="1" transform="translate(502 626)" opacity="0.3"/>
      </g>
    </g>
    <g id="Сгруппировать_6871" data-name="Сгруппировать 6871" transform="translate(75 16)">
      <rect id="Прямоугольник_693-5" data-name="Прямоугольник 693" width="70" height="12" rx="2" transform="translate(499 619)" fill="#ffd400"/>
      <g id="Сгруппировать_6866-5" data-name="Сгруппировать 6866">
        <rect id="Прямоугольник_694-5" data-name="Прямоугольник 694" width="38" height="2" rx="1" transform="translate(502 622)" fill="#066"/>
        <rect id="Прямоугольник_695-5" data-name="Прямоугольник 695" width="14" height="2" rx="1" transform="translate(502 626)" fill="#066"/>
      </g>
      <circle id="Эллипс_284" data-name="Эллипс 284" cx="3" cy="3" r="3" transform="translate(560 622)" fill="#066"/>
      <path id="Контур_3206" data-name="Контур 3206" d="M2.789,68.552l-1.56,1.56L.38,69.264l-.38.38,1.229,1.229L3.17,68.932Z" transform="translate(561.171 555.33)" fill="#ffd400"/>
    </g>
    <g id="Сгруппировать_6872" data-name="Сгруппировать 6872" transform="translate(150 16)">
      <rect id="Прямоугольник_693-6" data-name="Прямоугольник 693" width="70" height="12" rx="2" transform="translate(499 619)" fill="#b4d3d3"/>
      <g id="Сгруппировать_6866-6" data-name="Сгруппировать 6866">
        <rect id="Прямоугольник_694-6" data-name="Прямоугольник 694" width="38" height="2" rx="1" transform="translate(502 622)" opacity="0.3"/>
        <rect id="Прямоугольник_695-6" data-name="Прямоугольник 695" width="14" height="2" rx="1" transform="translate(502 626)" opacity="0.3"/>
      </g>
    </g>
    <g id="Сгруппировать_6873" data-name="Сгруппировать 6873" transform="translate(0 32)">
      <rect id="Прямоугольник_693-7" data-name="Прямоугольник 693" width="70" height="12" rx="2" transform="translate(499 619)" fill="#b4d3d3"/>
      <g id="Сгруппировать_6866-7" data-name="Сгруппировать 6866">
        <rect id="Прямоугольник_694-7" data-name="Прямоугольник 694" width="38" height="2" rx="1" transform="translate(502 622)" opacity="0.3"/>
        <rect id="Прямоугольник_695-7" data-name="Прямоугольник 695" width="14" height="2" rx="1" transform="translate(502 626)" opacity="0.3"/>
      </g>
    </g>
    <g id="Сгруппировать_6874" data-name="Сгруппировать 6874" transform="translate(75 32)">
      <rect id="Прямоугольник_693-8" data-name="Прямоугольник 693" width="70" height="12" rx="2" transform="translate(499 619)" fill="#b4d3d3"/>
      <g id="Сгруппировать_6866-8" data-name="Сгруппировать 6866">
        <rect id="Прямоугольник_694-8" data-name="Прямоугольник 694" width="38" height="2" rx="1" transform="translate(502 622)" opacity="0.3"/>
        <rect id="Прямоугольник_695-8" data-name="Прямоугольник 695" width="14" height="2" rx="1" transform="translate(502 626)" opacity="0.3"/>
      </g>
    </g>
    <rect id="Прямоугольник_696" data-name="Прямоугольник 696" width="24" height="10" rx="2" transform="translate(499 678)" fill="#b4d3d3"/>
    <rect id="Прямоугольник_697" data-name="Прямоугольник 697" width="24" height="10" rx="2" transform="translate(695 678)" fill="#066"/>
    <rect id="Прямоугольник_698" data-name="Прямоугольник 698" width="32" height="3" rx="1.5" transform="translate(593 612)" opacity="0.3"/>
  </g>
</svg>
