<svg xmlns="http://www.w3.org/2000/svg" width="10.656" height="10.656" viewBox="0 0 10.656 10.656">
  <path id="Path_129" data-name="Path 129" d="M1.729-7.9A5.136,5.136,0,0,1,5.5-9.453,5.136,5.136,0,0,1,9.271-7.9a5.136,5.136,0,0,1,1.558,3.771A5.136,5.136,0,0,1,9.271-.354,5.136,5.136,0,0,1,5.5,1.2,5.136,5.136,0,0,1,1.729-.354,5.136,5.136,0,0,1,.172-4.125,5.136,5.136,0,0,1,1.729-7.9Zm5,5.962a.237.237,0,0,0,.365-.043l.6-.838a.237.237,0,0,0-.043-.365L6.273-4.168V-7.133a.228.228,0,0,0-.258-.258H4.984a.228.228,0,0,0-.258.258v3.609a.265.265,0,0,0,.107.215Z" transform="translate(-0.172 9.453)" fill="#1f97e6"/>
</svg>
