<svg xmlns="http://www.w3.org/2000/svg" width="20" height="13" viewBox="0 0 20 13"><g><g><g><g><g><path fill="#066" d="M10 11.429c-4.005 0-7.474-3.81-8.5-5.056C2.524 5.127 5.985 1.32 10 1.32c4.005 0 7.473 3.809 8.5 5.055-1.025 1.247-4.486 5.055-8.5 5.055zm9.873-5.444C19.694 5.74 15.437 0 10 0 4.563 0 .305 5.74.127 5.984a.66.66 0 0 0 0 .779c.178.244 4.436 5.984 9.873 5.984 5.437 0 9.694-5.74 9.873-5.984a.66.66 0 0 0 0-.778z"/></g></g></g><g><g><g><path fill="#066" d="M10 9.01a2.64 2.64 0 0 1-2.637-2.636A2.64 2.64 0 0 1 10 3.736a2.64 2.64 0 0 1 2.637 2.638A2.64 2.64 0 0 1 10 9.01zm0-6.592a3.96 3.96 0 0 0-3.956 3.956A3.96 3.96 0 0 0 10 10.33a3.96 3.96 0 0 0 3.956-3.956A3.96 3.96 0 0 0 10 2.418z"/></g></g></g></g></g></svg>