<svg xmlns="http://www.w3.org/2000/svg" width="31" height="31" viewBox="0 0 31 31"><g><g><g><g><path fill="#cc6119" d="M16.62 17.285a1.12 1.12 0 0 1-1.12 1.119 1.12 1.12 0 0 1-1.12-1.12V11.69a1.12 1.12 0 0 1 2.238 0zm-1.12 4.477a1.12 1.12 0 0 1-1.12-1.12 1.12 1.12 0 0 1 2.238 0 1.12 1.12 0 0 1-1.118 1.12zm9.154-1.989L17.906 7.37c-1.084-1.825-3.727-1.828-4.812 0L6.347 19.773C5.238 21.638 6.58 24 8.752 24h13.496c2.17 0 3.514-2.36 2.406-4.227z"/></g></g></g><g opacity=".2"><path fill="#cc6119" d="M0 15.5C0 6.94 6.94 0 15.5 0 24.06 0 31 6.94 31 15.5 31 24.06 24.06 31 15.5 31 6.94 31 0 24.06 0 15.5z"/></g></g></svg>